<?xml version="1.0" encoding="UTF-8" standalone="no"?>
<!-- Created with Inkscape (http://www.inkscape.org/) -->

<svg
   xmlns:dc="http://purl.org/dc/elements/1.1/"
   xmlns:cc="http://creativecommons.org/ns#"
   xmlns:rdf="http://www.w3.org/1999/02/22-rdf-syntax-ns#"
   xmlns:svg="http://www.w3.org/2000/svg"
   xmlns="http://www.w3.org/2000/svg"
   xmlns:sodipodi="http://sodipodi.sourceforge.net/DTD/sodipodi-0.dtd"
   xmlns:inkscape="http://www.inkscape.org/namespaces/inkscape"
   width="152.40031mm"
   height="100.5276mm"
   viewBox="0 0 540.00114 356.20022"
   id="svg2"
   version="1.1"
   inkscape:version="0.91 r13725"
   sodipodi:docname="mailtesting.svg">
  <defs
     id="defs4" />
  <sodipodi:namedview
     id="base"
     pagecolor="#ffffff"
     bordercolor="#666666"
     borderopacity="1.0"
     inkscape:pageopacity="0.0"
     inkscape:pageshadow="2"
     inkscape:zoom="1.979899"
     inkscape:cx="100.55503"
     inkscape:cy="174.7444"
     inkscape:document-units="px"
     inkscape:current-layer="layer1"
     showgrid="false"
     inkscape:snap-nodes="true"
     inkscape:snap-bbox="false"
     inkscape:snap-global="false"
     fit-margin-top="0"
     fit-margin-left="0"
     fit-margin-right="0"
     fit-margin-bottom="0"
     inkscape:window-width="1920"
     inkscape:window-height="1020"
     inkscape:window-x="0"
     inkscape:window-y="31"
     inkscape:window-maximized="1"
     showguides="false"
     showborder="true" />
  <metadata
     id="metadata7">
    <rdf:RDF>
      <cc:Work
         rdf:about="">
        <dc:format>image/svg+xml</dc:format>
        <dc:type
           rdf:resource="http://purl.org/dc/dcmitype/StillImage" />
        <dc:title></dc:title>
      </cc:Work>
    </rdf:RDF>
  </metadata>
  <g
     inkscape:label="Layer 1"
     inkscape:groupmode="layer"
     id="layer1"
     transform="translate(-18.703262,56.751697)">
    <path
       style="opacity:0.3456376;fill:#ff4500;fill-opacity:1;stroke:#000000;stroke-width:0.64098907;stroke-linecap:round;stroke-linejoin:miter;stroke-miterlimit:4;stroke-dasharray:none;stroke-dashoffset:0;stroke-opacity:1"
       d="m 126.70183,193.02408 174.07882,0 c 4.73038,0 8.53858,4.7567 8.53858,10.66524 l 0,30.95065 c 0,5.90856 -3.8082,10.66526 -8.53858,10.66526 l -174.07882,0 c -4.73038,0 -8.53859,-4.7567 -8.53859,-10.66526 l 0,-30.95065 c 0,-5.90854 3.80821,-10.66524 8.53859,-10.66524 z"
       id="rect3336-3"
       inkscape:connector-curvature="0" />
    <g
       style="font-style:normal;font-weight:normal;font-size:14px;line-height:125%;font-family:Sans;letter-spacing:0px;word-spacing:0px;fill:#000000;fill-opacity:1;stroke:none;stroke-width:1px;stroke-linecap:butt;stroke-linejoin:miter;stroke-opacity:1"
       id="flowRoot3412"
       transform="matrix(1.4803164,0,0,1.6534834,3.7330481,-103.6315)" />
    <path
       style="opacity:0.3456376;fill:#87cefa;fill-opacity:1;stroke:#000000;stroke-width:0.65177476;stroke-linecap:round;stroke-linejoin:miter;stroke-miterlimit:4;stroke-dasharray:none;stroke-dashoffset:0;stroke-opacity:1"
       d="m 129.08844,-31.529605 173.33947,0 c 4.7103,0 8.50234,4.939098 8.50234,11.07421 l 0,32.137507 c 0,6.135112 -3.79204,11.07421 -8.50234,11.07421 l -173.33947,0 c -4.71028,0 -8.50232,-4.939098 -8.50232,-11.07421 l 0,-32.137507 c 0,-6.135112 3.79204,-11.07421 8.50232,-11.07421 z"
       id="rect3336-8-6"
       inkscape:connector-curvature="0" />
    <g
       transform="matrix(1.3958061,0,0,1.7535949,3.7330481,-103.6315)"
       style="font-style:normal;font-weight:normal;font-size:10.63420391px;line-height:125%;font-family:Sans;letter-spacing:0px;word-spacing:0px;fill:#000000;fill-opacity:1;stroke:none;stroke-width:1px;stroke-linecap:butt;stroke-linejoin:miter;stroke-opacity:1"
       id="text3338-1-1">
      <path
         d="m 127.00025,56.113766 0,2.840288 1.68236,0 q 0.84638,0 1.25139,-0.347897 0.41021,-0.353088 0.41021,-1.074844 0,-0.726947 -0.41021,-1.069651 -0.40501,-0.347896 -1.25139,-0.347896 l -1.68236,0 z m 0,-3.188184 0,2.336617 1.55255,0 q 0.76849,0 1.14235,-0.285587 0.37905,-0.290779 0.37905,-0.882722 0,-0.58675 -0.37905,-0.877529 -0.37386,-0.290779 -1.14235,-0.290779 l -1.55255,0 z m -1.04888,-0.861952 2.67932,0 q 1.19946,0 1.84852,0.498478 0.64906,0.498478 0.64906,1.417548 0,0.71137 -0.33232,1.131961 -0.33232,0.420591 -0.97618,0.52444 0.77367,0.16616 1.19946,0.695793 0.43097,0.524441 0.43097,1.313698 0,1.038497 -0.70617,1.604477 -0.70618,0.565981 -2.00949,0.565981 l -2.78317,0 0,-7.752376 z"
         id="path3546"
         inkscape:connector-curvature="0" />
      <path
         d="m 135.84304,56.892638 q -1.15792,0 -1.60447,0.264817 -0.44656,0.264816 -0.44656,0.903492 0,0.508863 0.33232,0.810027 0.33751,0.295971 0.91388,0.295971 0.79445,0 1.27216,-0.560788 0.4829,-0.56598 0.4829,-1.500627 l 0,-0.212892 -0.95023,0 z m 1.90565,-0.394629 0,3.317997 -0.95542,0 0,-0.882722 q -0.32713,0.529633 -0.81522,0.784065 -0.48809,0.249239 -1.19427,0.249239 -0.89311,0 -1.42274,-0.498479 -0.52444,-0.50367 -0.52444,-1.344853 0,-0.981379 0.65425,-1.479857 0.65945,-0.498478 1.96276,-0.498478 l 1.33966,0 0,-0.09346 q 0,-0.659445 -0.43617,-1.017727 -0.43098,-0.363473 -1.21504,-0.363473 -0.49848,0 -0.97099,0.119427 -0.47252,0.119427 -0.90869,0.358281 l 0,-0.882722 q 0.52444,-0.202507 1.01773,-0.301164 0.49328,-0.10385 0.96061,-0.10385 1.26177,0 1.88487,0.654253 0.6231,0.654253 0.6231,1.983528 z"
         id="path3548"
         inkscape:connector-curvature="0" />
      <path
         d="m 143.90697,54.223702 0,0.893107 q -0.40501,-0.223277 -0.81522,-0.332319 -0.40501,-0.114234 -0.82041,-0.114234 -0.92946,0 -1.44351,0.591943 -0.51406,0.58675 -0.51406,1.651209 0,1.064459 0.51406,1.656402 0.51405,0.58675 1.44351,0.58675 0.4154,0 0.82041,-0.109042 0.41021,-0.114234 0.81522,-0.337511 l 0,0.882722 q -0.39982,0.186929 -0.8308,0.280394 -0.42578,0.09347 -0.90868,0.09347 -1.3137,0 -2.08738,-0.825605 -0.77368,-0.825605 -0.77368,-2.227575 0,-1.42274 0.77887,-2.23796 0.78407,-0.81522 2.1445,-0.81522 0.44136,0 0.86195,0.09347 0.42059,0.08827 0.81522,0.270009 z"
         id="path3550"
         inkscape:connector-curvature="0" />
      <path
         d="m 145.5426,51.736503 0.96061,0 0,4.771891 2.85067,-2.507969 1.22024,0 -3.08434,2.720861 3.21415,3.09472 -1.2462,0 -2.95452,-2.840288 0,2.840288 -0.96061,0 0,-8.079503 z"
         id="path3552"
         inkscape:connector-curvature="0" />
      <path
         d="m 156.34816,56.669361 0,0.467324 -4.39284,0 q 0.0623,0.986571 0.59194,1.50582 0.53483,0.514055 1.48505,0.514055 0.5504,0 1.06446,-0.135004 0.51925,-0.135005 1.02811,-0.405014 l 0,0.903492 q -0.51405,0.218084 -1.05407,0.332319 -0.54002,0.114235 -1.09562,0.114235 -1.39158,0 -2.2068,-0.810028 -0.81003,-0.810027 -0.81003,-2.191227 0,-1.427933 0.76849,-2.263922 0.77368,-0.841183 2.08218,-0.841183 1.1735,0 1.85372,0.758103 0.68541,0.75291 0.68541,2.05103 z m -0.95542,-0.280394 q -0.0104,-0.784065 -0.44136,-1.251388 -0.42578,-0.467323 -1.13196,-0.467323 -0.79964,0 -1.28254,0.451746 -0.47771,0.451746 -0.55041,1.272158 l 3.40627,-0.0052 z"
         id="path3554"
         inkscape:connector-curvature="0" />
      <path
         d="m 162.75049,56.305888 0,3.510118 -0.95542,0 0,-3.478963 q 0,-0.825605 -0.32193,-1.235811 -0.32194,-0.410206 -0.9658,-0.410206 -0.77368,0 -1.22024,0.493285 -0.44655,0.493286 -0.44655,1.344853 l 0,3.286842 -0.96061,0 0,-5.815581 0.96061,0 0,0.903492 q 0.3427,-0.52444 0.80483,-0.784064 0.46733,-0.259625 1.07485,-0.259625 1.00215,0 1.5162,0.623098 0.51406,0.617906 0.51406,1.822562 z"
         id="path3556"
         inkscape:connector-curvature="0" />
      <path
         d="m 168.49337,54.883147 0,-3.146644 0.95542,0 0,8.079503 -0.95542,0 0,-0.872337 q -0.30116,0.519248 -0.76329,0.77368 -0.45694,0.249239 -1.10081,0.249239 -1.05407,0 -1.71871,-0.841182 -0.65945,-0.841183 -0.65945,-2.211998 0,-1.370815 0.65945,-2.211997 0.66464,-0.841183 1.71871,-0.841183 0.64387,0 1.10081,0.254432 0.46213,0.249239 0.76329,0.768487 z m -3.25568,2.030261 q 0,1.054074 0.43097,1.656402 0.43617,0.597135 1.19427,0.597135 0.75811,0 1.19427,-0.597135 0.43617,-0.602328 0.43617,-1.656402 0,-1.054074 -0.43617,-1.651209 -0.43616,-0.602328 -1.19427,-0.602328 -0.7581,0 -1.19427,0.602328 -0.43097,0.597135 -0.43097,1.651209 z"
         id="path3558"
         inkscape:connector-curvature="0" />
    </g>
    <g
       transform="matrix(1.3969511,0,0,1.7521576,3.7330481,-103.6315)"
       style="font-style:normal;font-weight:normal;font-size:13.77065277px;line-height:125%;font-family:Sans;letter-spacing:0px;word-spacing:0px;fill:#000000;fill-opacity:1;stroke:none;stroke-width:1px;stroke-linecap:butt;stroke-linejoin:miter;stroke-opacity:1"
       id="text3734">
      <path
         d="m 101.22828,179.40308 0,3.77213 1.70788,0 q 0.94808,0 1.46582,-0.49085 0.51775,-0.49084 0.51775,-1.39858 0,-0.90101 -0.51775,-1.39186 -0.51774,-0.49084 -1.46582,-0.49084 l -1.70788,0 z m -1.358242,-1.11618 3.066122,0 q 1.68771,0 2.54838,0.76653 0.86739,0.75981 0.86739,2.23235 0,1.486 -0.86739,2.2458 -0.86067,0.75981 -2.54838,0.75981 l -1.70788,0 0,4.03437 -1.358242,0 0,-10.03886 z"
         id="path3561"
         inkscape:connector-curvature="0" />
      <path
         d="m 110.56112,181.66232 q -0.99514,0 -1.5734,0.77998 -0.57826,0.77326 -0.57826,2.12477 0,1.35152 0.57153,2.13149 0.57826,0.77326 1.58013,0.77326 0.98842,0 1.56668,-0.77998 0.57826,-0.77998 0.57826,-2.12477 0,-1.33807 -0.57826,-2.11804 -0.57826,-0.78671 -1.56668,-0.78671 z m 0,-1.04893 q 1.61375,0 2.53493,1.04893 0.92118,1.04894 0.92118,2.90475 0,1.84909 -0.92118,2.90475 -0.92118,1.04893 -2.53493,1.04893 -1.62047,0 -2.54165,-1.04893 -0.91446,-1.05566 -0.91446,-2.90475 0,-1.85581 0.91446,-2.90475 0.92118,-1.04893 2.54165,-1.04893 z"
         id="path3563"
         inkscape:connector-curvature="0" />
      <path
         d="m 120.86222,181.01682 0,1.16997 q -0.52447,-0.26896 -1.08928,-0.40343 -0.56482,-0.13448 -1.16997,-0.13448 -0.92118,0 -1.38514,0.2824 -0.45722,0.28241 -0.45722,0.84722 0,0.43033 0.32947,0.67912 0.32947,0.24206 1.32462,0.46395 l 0.42361,0.0941 q 1.31789,0.2824 1.86925,0.80015 0.55809,0.51102 0.55809,1.4322 0,1.04894 -0.83377,1.66081 -0.82704,0.61188 -2.27942,0.61188 -0.60515,0 -1.2641,-0.12103 -0.65222,-0.1143 -1.37841,-0.34964 l 0,-1.27755 q 0.68584,0.35637 1.35151,0.53791 0.66568,0.17483 1.3179,0.17483 0.87411,0 1.34479,-0.29586 0.47068,-0.30258 0.47068,-0.84722 0,-0.50429 -0.34293,-0.77325 -0.33619,-0.26896 -1.48599,-0.51774 l -0.43033,-0.10086 q -1.1498,-0.24207 -1.66082,-0.73964 -0.51102,-0.50429 -0.51102,-1.37841 0,-1.06238 0.75308,-1.64064 0.75309,-0.57826 2.13822,-0.57826 0.68584,0 1.291,0.10086 0.60516,0.10086 1.11618,0.30257 z"
         id="path3565"
         inkscape:connector-curvature="0" />
      <path
         d="m 124.46625,178.65672 0,2.13821 2.54838,0 0,0.96153 -2.54838,0 0,4.08816 q 0,0.92118 0.24879,1.18342 0.25551,0.26223 1.02876,0.26223 l 1.27083,0 0,1.03549 -1.27083,0 q -1.4322,0 -1.97684,-0.53119 -0.54464,-0.53792 -0.54464,-1.94995 l 0,-4.08816 -0.90773,0 0,-0.96153 0.90773,0 0,-2.13821 1.24393,0 z"
         id="path3567"
         inkscape:connector-curvature="0" />
      <path
         d="m 134.73373,180.79493 0,7.53083 -1.24393,0 0,-6.5693 -3.3956,0 0,6.5693 -1.24393,0 0,-6.5693 -1.18342,0 0,-0.96153 1.18342,0 0,-0.52446 q 0,-1.23049 0.57826,-1.81547 0.58498,-0.59171 1.78857,-0.59171 l 1.24393,0 0,1.02877 -1.18341,0 q -0.66568,0 -0.92791,0.26895 -0.25551,0.26896 -0.25551,0.96825 l 0,0.66567 4.63953,0 z m -1.24393,-2.91819 1.24393,0 0,1.56668 -1.24393,0 0,-1.56668 z"
         id="path3569"
         inkscape:connector-curvature="0" />
      <path
         d="m 143.5959,180.79493 -2.72321,3.66456 2.86441,3.86627 -1.4591,0 -2.19201,-2.95854 -2.19201,2.95854 -1.45909,0 2.92492,-3.94024 -2.67614,-3.59059 1.4591,0 1.99701,2.68286 1.99702,-2.68286 1.4591,0 z"
         id="path3571"
         inkscape:connector-curvature="0" />
      <path
         d="m 147.68406,178.2869 1.14307,0 -3.49646,11.31641 -1.14307,0 3.49646,-11.31641 z"
         id="path3573"
         inkscape:connector-curvature="0" />
      <path
         d="m 155.09385,181.93801 0,-4.07472 1.23721,0 0,10.46247 -1.23721,0 0,-1.12962 q -0.38999,0.67239 -0.98842,1.00186 -0.59171,0.32275 -1.42548,0.32275 -1.36496,0 -2.22563,-1.08928 -0.85394,-1.08928 -0.85394,-2.8644 0,-1.77512 0.85394,-2.8644 0.86067,-1.08928 2.22563,-1.08928 0.83377,0 1.42548,0.32947 0.59843,0.32275 0.98842,0.99515 z m -4.21592,2.62906 q 0,1.36496 0.55809,2.14494 0.56481,0.77326 1.54651,0.77326 0.9817,0 1.54651,-0.77326 0.56481,-0.77998 0.56481,-2.14494 0,-1.36496 -0.56481,-2.13822 -0.56481,-0.77997 -1.54651,-0.77997 -0.9817,0 -1.54651,0.77997 -0.55809,0.77326 -0.55809,2.13822 z"
         id="path3575"
         inkscape:connector-curvature="0" />
      <path
         d="m 161.79763,181.66232 q -0.99514,0 -1.5734,0.77998 -0.57826,0.77326 -0.57826,2.12477 0,1.35152 0.57153,2.13149 0.57826,0.77326 1.58013,0.77326 0.98842,0 1.56668,-0.77998 0.57826,-0.77998 0.57826,-2.12477 0,-1.33807 -0.57826,-2.11804 -0.57826,-0.78671 -1.56668,-0.78671 z m 0,-1.04893 q 1.61375,0 2.53493,1.04893 0.92118,1.04894 0.92118,2.90475 0,1.84909 -0.92118,2.90475 -0.92118,1.04893 -2.53493,1.04893 -1.62047,0 -2.54165,-1.04893 -0.91446,-1.05566 -0.91446,-2.90475 0,-1.85581 0.91446,-2.90475 0.92118,-1.04893 2.54165,-1.04893 z"
         id="path3577"
         inkscape:connector-curvature="0" />
      <path
         d="m 166.41026,180.79493 1.31117,0 2.35338,6.32052 2.35339,-6.32052 1.31117,0 -2.82406,7.53083 -1.68099,0 -2.82406,-7.53083 z"
         id="path3579"
         inkscape:connector-curvature="0" />
      <path
         d="m 181.8888,184.25105 0,0.60515 -5.68847,0 q 0.0807,1.27755 0.76653,1.94995 0.69257,0.66567 1.92305,0.66567 0.71274,0 1.37841,-0.17482 0.6724,-0.17483 1.33135,-0.52447 l 0,1.16996 q -0.66567,0.28241 -1.36497,0.43034 -0.69929,0.14792 -1.41875,0.14792 -1.80202,0 -2.85768,-1.04893 -1.04893,-1.04894 -1.04893,-2.83751 0,-1.84909 0.99514,-2.93164 1.00187,-1.08928 2.6963,-1.08928 1.51962,0 2.40046,0.98169 0.88756,0.97498 0.88756,2.65597 z m -1.23721,-0.3631 q -0.0135,-1.01531 -0.57154,-1.62047 -0.55136,-0.60516 -1.46582,-0.60516 -1.03549,0 -1.66081,0.58499 -0.61861,0.58498 -0.71274,1.64737 l 4.41091,-0.007 z"
         id="path3581"
         inkscape:connector-curvature="0" />
      <path
         d="m 189.33894,181.08406 0,1.15652 q -0.52447,-0.28913 -1.05566,-0.43033 -0.52447,-0.14793 -1.06239,-0.14793 -1.20358,0 -1.86925,0.76653 -0.66568,0.75981 -0.66568,2.13822 0,1.37841 0.66568,2.14494 0.66567,0.75981 1.86925,0.75981 0.53792,0 1.06239,-0.1412 0.53119,-0.14793 1.05566,-0.43706 l 0,1.14307 q -0.51774,0.24206 -1.07583,0.36309 -0.55137,0.12103 -1.17669,0.12103 -1.70116,0 -2.70303,-1.0691 -1.00187,-1.06911 -1.00187,-2.88458 0,-1.84236 1.00859,-2.89802 1.01532,-1.05566 2.77699,-1.05566 0.57154,0 1.11618,0.12103 0.54464,0.11431 1.05566,0.34964 z"
         id="path3583"
         inkscape:connector-curvature="0" />
      <path
         d="m 194.42225,181.66232 q -0.99515,0 -1.57341,0.77998 -0.57826,0.77326 -0.57826,2.12477 0,1.35152 0.57154,2.13149 0.57826,0.77326 1.58013,0.77326 0.98842,0 1.56668,-0.77998 0.57826,-0.77998 0.57826,-2.12477 0,-1.33807 -0.57826,-2.11804 -0.57826,-0.78671 -1.56668,-0.78671 z m 0,-1.04893 q 1.61375,0 2.53493,1.04893 0.92118,1.04894 0.92118,2.90475 0,1.84909 -0.92118,2.90475 -0.92118,1.04893 -2.53493,1.04893 -1.62048,0 -2.54166,-1.04893 -0.91445,-1.05566 -0.91445,-2.90475 0,-1.85581 0.91445,-2.90475 0.92118,-1.04893 2.54166,-1.04893 z"
         id="path3585"
         inkscape:connector-curvature="0" />
      <path
         d="m 201.1462,178.65672 0,2.13821 2.54838,0 0,0.96153 -2.54838,0 0,4.08816 q 0,0.92118 0.24879,1.18342 0.25551,0.26223 1.02876,0.26223 l 1.27083,0 0,1.03549 -1.27083,0 q -1.4322,0 -1.97684,-0.53119 -0.54464,-0.53792 -0.54464,-1.94995 l 0,-4.08816 -0.90773,0 0,-0.96153 0.90773,0 0,-2.13821 1.24393,0 z"
         id="path3587"
         inkscape:connector-curvature="0" />
    </g>
    <g
       style="font-style:normal;font-weight:normal;font-size:14px;line-height:125%;font-family:Sans;letter-spacing:0px;word-spacing:0px;fill:#000000;fill-opacity:1;stroke:none;stroke-width:1px;stroke-linecap:butt;stroke-linejoin:miter;stroke-opacity:1"
       id="flowRoot3738"
       transform="matrix(1.4803164,0,0,1.6534834,3.7330481,-103.6315)" />
    <path
       style="display:inline;fill:none;fill-rule:evenodd;stroke:#000000;stroke-width:1.56450582px;stroke-linecap:butt;stroke-linejoin:miter;stroke-opacity:1"
       d="M 256.72383,22.756322 411.75367,125.47581"
       id="path3746"
       inkscape:connector-curvature="0" />
    <g
       transform="matrix(1.3605198,0,0,1.6534834,91.640849,18.592704)"
       style="font-style:normal;font-weight:normal;font-size:14px;line-height:125%;font-family:Sans;letter-spacing:0px;word-spacing:0px;fill:#000000;fill-opacity:1;stroke:none;stroke-width:1px;stroke-linecap:butt;stroke-linejoin:miter;stroke-opacity:1"
       id="flowRoot3748">
      <path
         d="m 192.21165,27.144494 1.68078,0 0,-5.801211 -1.82848,0.366714 0,-0.937158 1.81829,-0.366714 1.02884,0 0,6.738369 1.68077,0 0,0.865852 -4.3802,0 0,-0.865852 z"
         style="font-size:10.43097401px"
         id="path3591"
         inkscape:connector-curvature="0" />
      <path
         d="m 198.67499,26.716661 1.07467,0 0,1.293685 -1.07467,0 0,-1.293685 z"
         style="font-size:10.43097401px"
         id="path3593"
         inkscape:connector-curvature="0" />
      <path
         d="m 208.48968,23.181946 q -0.15789,-0.09168 -0.34634,-0.132425 -0.18336,-0.04584 -0.40746,-0.04584 -0.79455,0 -1.22238,0.519511 -0.42274,0.514419 -0.42274,1.482136 l 0,3.005017 -0.94225,0 0,-5.704439 0.94225,0 0,0.886225 q 0.29541,-0.519511 0.76908,-0.76908 0.47367,-0.254663 1.15107,-0.254663 0.0968,0 0.21392,0.01528 0.11714,0.01019 0.25975,0.03565 l 0.005,0.962624 z"
         style="font-size:10.43097401px"
         id="path3595"
         inkscape:connector-curvature="0" />
      <path
         d="m 214.13809,24.923837 0,0.458392 -4.30889,0 q 0.0611,0.967718 0.58063,1.477043 0.52461,0.504231 1.45667,0.504231 0.53989,0 1.04412,-0.132424 0.50932,-0.132425 1.00846,-0.397274 l 0,0.886226 q -0.50423,0.213916 -1.03393,0.325968 -0.5297,0.112051 -1.07467,0.112051 -1.365,0 -2.16464,-0.794547 -0.79454,-0.794547 -0.79454,-2.149351 0,-1.400643 0.7538,-2.220656 0.75889,-0.825107 2.04239,-0.825107 1.15108,0 1.81829,0.743615 0.67231,0.738521 0.67231,2.011833 z m -0.93716,-0.275036 q -0.0102,-0.76908 -0.43292,-1.227473 -0.41765,-0.458392 -1.11033,-0.458392 -0.78436,0 -1.25803,0.443113 -0.46858,0.443112 -0.53989,1.247846 l 3.34117,-0.0051 z"
         style="font-size:10.43097401px"
         id="path3597"
         inkscape:connector-curvature="0" />
      <path
         d="m 216.23651,25.16322 q 0,1.033929 0.42274,1.624746 0.42783,0.585724 1.17145,0.585724 0.74361,0 1.17145,-0.585724 0.42783,-0.590817 0.42783,-1.624746 0,-1.03393 -0.42783,-1.619654 -0.42784,-0.590816 -1.17145,-0.590816 -0.74362,0 -1.17145,0.590816 -0.42274,0.585724 -0.42274,1.619654 z m 3.19347,1.99146 q -0.29541,0.509325 -0.74871,0.758894 -0.44821,0.244476 -1.07977,0.244476 -1.03393,0 -1.68586,-0.825106 -0.64685,-0.825107 -0.64685,-2.169724 0,-1.344618 0.64685,-2.169724 0.65193,-0.825107 1.68586,-0.825107 0.63156,0 1.07977,0.249569 0.4533,0.244476 0.74871,0.753801 l 0,-0.865852 0.93716,0 0,7.874163 -0.93716,0 0,-3.02539 z"
         style="font-size:10.43097401px"
         id="path3599"
         inkscape:connector-curvature="0" />
      <path
         d="m 222.20071,25.75913 0,-3.453223 0.93715,0 0,3.41757 q 0,0.809827 0.31578,1.217287 0.31579,0.402366 0.94735,0.402366 0.75889,0 1.19691,-0.483858 0.44311,-0.483859 0.44311,-1.319152 l 0,-3.234213 0.93716,0 0,5.704439 -0.93716,0 0,-0.876039 q -0.34124,0.519511 -0.79454,0.774174 -0.44821,0.249569 -1.04412,0.249569 -0.983,0 -1.49232,-0.61119 -0.50932,-0.61119 -0.50932,-1.78773 z m 2.35817,-3.590741 0,0 z"
         style="font-size:10.43097401px"
         id="path3601"
         inkscape:connector-curvature="0" />
      <path
         d="m 233.79803,24.923837 0,0.458392 -4.30889,0 q 0.0611,0.967718 0.58063,1.477043 0.52461,0.504231 1.45667,0.504231 0.53989,0 1.04412,-0.132424 0.50932,-0.132425 1.00846,-0.397274 l 0,0.886226 q -0.50423,0.213916 -1.03393,0.325968 -0.52969,0.112051 -1.07467,0.112051 -1.36499,0 -2.16463,-0.794547 -0.79455,-0.794547 -0.79455,-2.149351 0,-1.400643 0.7538,-2.220656 0.7589,-0.825107 2.04239,-0.825107 1.15108,0 1.81829,0.743615 0.67231,0.738521 0.67231,2.011833 z m -0.93715,-0.275036 q -0.0102,-0.76908 -0.43293,-1.227473 -0.41765,-0.458392 -1.11033,-0.458392 -0.78436,0 -1.25803,0.443113 -0.46858,0.443112 -0.53989,1.247846 l 3.34118,-0.0051 z"
         style="font-size:10.43097401px"
         id="path3603"
         inkscape:connector-curvature="0" />
      <path
         d="m 238.97277,22.473984 0,0.886225 q -0.39727,-0.203729 -0.8251,-0.305594 -0.42784,-0.101865 -0.88623,-0.101865 -0.69777,0 -1.04921,0.213916 -0.34634,0.213916 -0.34634,0.641749 0,0.325968 0.24957,0.514419 0.24957,0.183357 1.00337,0.351434 l 0.32087,0.0713 q 0.99828,0.213917 1.41593,0.606097 0.42274,0.387087 0.42274,1.084862 0,0.794547 -0.63157,1.258032 -0.62647,0.463486 -1.72661,0.463486 -0.45839,0 -0.95753,-0.09168 -0.49404,-0.08659 -1.04411,-0.264849 l 0,-0.967718 q 0.51951,0.269943 1.02374,0.40746 0.50423,0.132425 0.99828,0.132425 0.66212,0 1.01865,-0.224103 0.35652,-0.229196 0.35652,-0.64175 0,-0.381993 -0.25975,-0.585723 -0.25467,-0.20373 -1.12561,-0.39218 l -0.32597,-0.0764 q -0.87094,-0.183357 -1.25803,-0.560258 -0.38709,-0.381993 -0.38709,-1.044116 0,-0.804733 0.57045,-1.242752 0.57044,-0.43802 1.61965,-0.43802 0.51951,0 0.9779,0.0764 0.4584,0.0764 0.84548,0.229196 z"
         style="font-size:10.43097401px"
         id="path3605"
         inkscape:connector-curvature="0" />
      <path
         d="m 241.70275,20.686254 0,1.619653 1.93035,0 0,0.728335 -1.93035,0 0,3.096695 q 0,0.697775 0.18845,0.896412 0.19355,0.198636 0.77927,0.198636 l 0.96263,0 0,0.784361 -0.96263,0 q -1.08486,0 -1.49741,-0.402367 -0.41256,-0.40746 -0.41256,-1.477042 l 0,-3.096695 -0.68759,0 0,-0.728335 0.68759,0 0,-1.619653 0.94225,0 z"
         style="font-size:10.43097401px"
         id="path3607"
         inkscape:connector-curvature="0" />
      <path
         d="m 250.78402,25.142847 q -1.1358,0 -1.57382,0.259755 -0.43802,0.259756 -0.43802,0.886226 0,0.499138 0.32597,0.794547 0.33106,0.290315 0.89641,0.290315 0.77927,0 1.24785,-0.550071 0.47367,-0.555164 0.47367,-1.471949 l 0,-0.208823 -0.93206,0 z m 1.86922,-0.387087 0,3.254586 -0.93716,0 0,-0.865852 q -0.32087,0.519511 -0.79964,0.76908 -0.47876,0.244476 -1.17144,0.244476 -0.87604,0 -1.39556,-0.488952 -0.51441,-0.494045 -0.51441,-1.319151 0,-0.962624 0.64175,-1.451576 0.64684,-0.488952 1.92524,-0.488952 l 1.31406,0 0,-0.09168 q 0,-0.646842 -0.42783,-0.998277 -0.42274,-0.356527 -1.19182,-0.356527 -0.48895,0 -0.95244,0.117145 -0.46348,0.117145 -0.89132,0.351434 l 0,-0.865852 q 0.51442,-0.198637 0.99828,-0.295409 0.48386,-0.101865 0.94225,-0.101865 1.23766,0 1.84885,0.64175 0.61119,0.641749 0.61119,1.945621 z"
         style="font-size:10.43097401px"
         id="path3609"
         inkscape:connector-curvature="0" />
      <path
         d="m 261.21499,23.181946 q -0.15789,-0.09168 -0.34634,-0.132425 -0.18336,-0.04584 -0.40746,-0.04584 -0.79455,0 -1.22238,0.519511 -0.42274,0.514419 -0.42274,1.482136 l 0,3.005017 -0.94225,0 0,-5.704439 0.94225,0 0,0.886225 q 0.29541,-0.519511 0.76908,-0.76908 0.47367,-0.254663 1.15108,-0.254663 0.0968,0 0.21391,0.01528 0.11715,0.01019 0.25976,0.03565 l 0.005,0.962624 z"
         style="font-size:10.43097401px"
         id="path3611"
         inkscape:connector-curvature="0" />
      <path
         d="m 266.86341,24.923837 0,0.458392 -4.30889,0 q 0.0611,0.967718 0.58063,1.477043 0.5246,0.504231 1.45667,0.504231 0.53988,0 1.04411,-0.132424 0.50933,-0.132425 1.00847,-0.397274 l 0,0.886226 q -0.50424,0.213916 -1.03393,0.325968 -0.5297,0.112051 -1.07468,0.112051 -1.36499,0 -2.16463,-0.794547 -0.79455,-0.794547 -0.79455,-2.149351 0,-1.400643 0.7538,-2.220656 0.7589,-0.825107 2.0424,-0.825107 1.15107,0 1.81829,0.743615 0.67231,0.738521 0.67231,2.011833 z m -0.93716,-0.275036 q -0.0102,-0.76908 -0.43293,-1.227473 -0.41765,-0.458392 -1.11033,-0.458392 -0.78436,0 -1.25803,0.443113 -0.46858,0.443112 -0.53988,1.247846 l 3.34117,-0.0051 z"
         style="font-size:10.43097401px"
         id="path3613"
         inkscape:connector-curvature="0" />
      <path
         d="m 272.03815,22.473984 0,0.886225 q -0.39728,-0.203729 -0.82511,-0.305594 -0.42783,-0.101865 -0.88622,-0.101865 -0.69778,0 -1.04921,0.213916 -0.34634,0.213916 -0.34634,0.641749 0,0.325968 0.24957,0.514419 0.24956,0.183357 1.00337,0.351434 l 0.32087,0.0713 q 0.99828,0.213917 1.41592,0.606097 0.42274,0.387087 0.42274,1.084862 0,0.794547 -0.63156,1.258032 -0.62647,0.463486 -1.72661,0.463486 -0.45839,0 -0.95753,-0.09168 -0.49405,-0.08659 -1.04412,-0.264849 l 0,-0.967718 q 0.51951,0.269943 1.02375,0.40746 0.50423,0.132425 0.99827,0.132425 0.66212,0 1.01865,-0.224103 0.35653,-0.229196 0.35653,-0.64175 0,-0.381993 -0.25976,-0.585723 -0.25466,-0.20373 -1.1256,-0.39218 l -0.32597,-0.0764 q -0.87095,-0.183357 -1.25803,-0.560258 -0.38709,-0.381993 -0.38709,-1.044116 0,-0.804733 0.57044,-1.242752 0.57045,-0.43802 1.61966,-0.43802 0.51951,0 0.9779,0.0764 0.45839,0.0764 0.84548,0.229196 z"
         style="font-size:10.43097401px"
         id="path3615"
         inkscape:connector-curvature="0" />
      <path
         d="m 274.76813,20.686254 0,1.619653 1.93034,0 0,0.728335 -1.93034,0 0,3.096695 q 0,0.697775 0.18845,0.896412 0.19354,0.198636 0.77927,0.198636 l 0.96262,0 0,0.784361 -0.96262,0 q -1.08486,0 -1.49742,-0.402367 -0.41255,-0.40746 -0.41255,-1.477042 l 0,-3.096695 -0.68759,0 0,-0.728335 0.68759,0 0,-1.619653 0.94225,0 z"
         style="font-size:10.43097401px"
         id="path3617"
         inkscape:connector-curvature="0" />
      <path
         d="m 284.89351,22.473984 0,0.886225 q -0.39727,-0.203729 -0.82511,-0.305594 -0.42783,-0.101865 -0.88622,-0.101865 -0.69778,0 -1.04921,0.213916 -0.34634,0.213916 -0.34634,0.641749 0,0.325968 0.24957,0.514419 0.24957,0.183357 1.00337,0.351434 l 0.32087,0.0713 q 0.99828,0.213917 1.41593,0.606097 0.42274,0.387087 0.42274,1.084862 0,0.794547 -0.63157,1.258032 -0.62647,0.463486 -1.72661,0.463486 -0.45839,0 -0.95753,-0.09168 -0.49405,-0.08659 -1.04412,-0.264849 l 0,-0.967718 q 0.51952,0.269943 1.02375,0.40746 0.50423,0.132425 0.99827,0.132425 0.66213,0 1.01865,-0.224103 0.35653,-0.229196 0.35653,-0.64175 0,-0.381993 -0.25975,-0.585723 -0.25467,-0.20373 -1.12561,-0.39218 l -0.32597,-0.0764 q -0.87095,-0.183357 -1.25803,-0.560258 -0.38709,-0.381993 -0.38709,-1.044116 0,-0.804733 0.57044,-1.242752 0.57045,-0.43802 1.61966,-0.43802 0.51951,0 0.9779,0.0764 0.45839,0.0764 0.84548,0.229196 z"
         style="font-size:10.43097401px"
         id="path3619"
         inkscape:connector-curvature="0" />
      <path
         d="m 291.57585,24.923837 0,0.458392 -4.30889,0 q 0.0611,0.967718 0.58064,1.477043 0.5246,0.504231 1.45666,0.504231 0.53989,0 1.04412,-0.132424 0.50933,-0.132425 1.00846,-0.397274 l 0,0.886226 q -0.50423,0.213916 -1.03393,0.325968 -0.52969,0.112051 -1.07467,0.112051 -1.36499,0 -2.16463,-0.794547 -0.79455,-0.794547 -0.79455,-2.149351 0,-1.400643 0.7538,-2.220656 0.7589,-0.825107 2.04239,-0.825107 1.15108,0 1.81829,0.743615 0.67231,0.738521 0.67231,2.011833 z m -0.93715,-0.275036 q -0.0102,-0.76908 -0.43293,-1.227473 -0.41765,-0.458392 -1.11033,-0.458392 -0.78436,0 -1.25803,0.443113 -0.46858,0.443112 -0.53989,1.247846 l 3.34118,-0.0051 z"
         style="font-size:10.43097401px"
         id="path3621"
         inkscape:connector-curvature="0" />
      <path
         d="m 296.41953,23.181946 q -0.15789,-0.09168 -0.34634,-0.132425 -0.18336,-0.04584 -0.40746,-0.04584 -0.79455,0 -1.22238,0.519511 -0.42274,0.514419 -0.42274,1.482136 l 0,3.005017 -0.94225,0 0,-5.704439 0.94225,0 0,0.886225 q 0.29541,-0.519511 0.76908,-0.76908 0.47367,-0.254663 1.15107,-0.254663 0.0968,0 0.21392,0.01528 0.11714,0.01019 0.25975,0.03565 l 0.005,0.962624 z"
         style="font-size:10.43097401px"
         id="path3623"
         inkscape:connector-curvature="0" />
      <path
         d="m 296.74041,22.305907 0.99318,0 1.78264,4.787654 1.78263,-4.787654 0.99319,0 -2.13917,5.704439 -1.27331,0 -2.13916,-5.704439 z"
         style="font-size:10.43097401px"
         id="path3625"
         inkscape:connector-curvature="0" />
      <path
         d="m 303.58573,22.305907 0.93716,0 0,5.704439 -0.93716,0 0,-5.704439 z m 0,-2.220657 0.93716,0 0,1.186727 -0.93716,0 0,-1.186727 z"
         style="font-size:10.43097401px"
         id="path3627"
         inkscape:connector-curvature="0" />
      <path
         d="m 310.58385,22.524917 0,0.876038 q -0.39727,-0.219009 -0.79964,-0.325967 -0.39727,-0.112052 -0.80473,-0.112052 -0.91169,0 -1.41592,0.58063 -0.50424,0.575538 -0.50424,1.619654 0,1.044116 0.50424,1.624746 0.50423,0.575537 1.41592,0.575537 0.40746,0 0.80473,-0.106958 0.40237,-0.112051 0.79964,-0.331061 l 0,0.865852 q -0.39218,0.183357 -0.81492,0.275036 -0.41764,0.09168 -0.89132,0.09168 -1.28859,0 -2.04748,-0.809827 -0.7589,-0.809826 -0.7589,-2.185003 0,-1.395551 0.76399,-2.195191 0.76908,-0.79964 2.10351,-0.79964 0.43293,0 0.84548,0.09168 0.41256,0.08658 0.79964,0.264849 z"
         style="font-size:10.43097401px"
         id="path3629"
         inkscape:connector-curvature="0" />
      <path
         d="m 317.10321,24.923837 0,0.458392 -4.30889,0 q 0.0611,0.967718 0.58063,1.477043 0.52461,0.504231 1.45667,0.504231 0.53989,0 1.04412,-0.132424 0.50932,-0.132425 1.00846,-0.397274 l 0,0.886226 q -0.50423,0.213916 -1.03393,0.325968 -0.52969,0.112051 -1.07467,0.112051 -1.36499,0 -2.16463,-0.794547 -0.79455,-0.794547 -0.79455,-2.149351 0,-1.400643 0.7538,-2.220656 0.75889,-0.825107 2.04239,-0.825107 1.15108,0 1.81829,0.743615 0.67231,0.738521 0.67231,2.011833 z m -0.93716,-0.275036 q -0.0102,-0.76908 -0.43292,-1.227473 -0.41765,-0.458392 -1.11033,-0.458392 -0.78436,0 -1.25803,0.443113 -0.46858,0.443112 -0.53989,1.247846 l 3.34117,-0.0051 z"
         style="font-size:10.43097401px"
         id="path3631"
         inkscape:connector-curvature="0" />
    </g>
    <path
       style="opacity:0.3456376;fill:#b8860b;fill-opacity:1;stroke:#000000;stroke-width:1.72877896;stroke-linecap:round;stroke-linejoin:miter;stroke-miterlimit:4;stroke-dasharray:none;stroke-dashoffset:0;stroke-opacity:1"
       d="m 418.12942,121.20877 122.06247,0 c 4.71027,0 8.50233,4.9391 8.50233,11.07422 l 0,18.77319 c 0,6.13512 -3.79206,11.07421 -8.50233,11.07421 l -122.06247,0 c -4.71029,0 -8.50232,-4.93909 -8.50232,-11.07421 l 0,-18.77319 c 0,-6.13512 3.79203,-11.07422 8.50232,-11.07422 z"
       id="rect3780"
       inkscape:connector-curvature="0" />
    <g
       style="font-style:normal;font-weight:normal;font-size:14px;line-height:125%;font-family:Sans;letter-spacing:0px;word-spacing:0px;fill:#000000;fill-opacity:1;stroke:none;stroke-width:1px;stroke-linecap:butt;stroke-linejoin:miter;stroke-opacity:1"
       id="text3782"
       transform="matrix(1.4803164,0,0,1.6534834,3.7330481,-103.6315)">
      <path
         d="m 307.23331,143.93538 q 0.47168,-0.84766 1.12793,-1.25098 0.65625,-0.40332 1.54492,-0.40332 1.19629,0 1.8457,0.84082 0.64942,0.83399 0.64942,2.37891 l 0,4.62109 -1.26465,0 0,-4.58008 q 0,-1.10058 -0.38965,-1.63378 -0.38965,-0.53321 -1.18945,-0.53321 -0.97754,0 -1.54493,0.64942 -0.56738,0.64941 -0.56738,1.7705 l 0,4.32715 -1.26465,0 0,-4.58008 q 0,-1.10742 -0.38965,-1.63378 -0.38964,-0.53321 -1.20312,-0.53321 -0.96387,0 -1.53125,0.65625 -0.56738,0.64942 -0.56738,1.76367 l 0,4.32715 -1.26465,0 0,-7.65625 1.26465,0 0,1.18946 q 0.43066,-0.70411 1.03222,-1.03907 0.60157,-0.33496 1.42871,-0.33496 0.83399,0 1.41504,0.42383 0.58789,0.42383 0.86817,1.23047 z"
         id="path3635"
         inkscape:connector-curvature="0" />
      <path
         d="m 317.8837,143.34749 q -1.01172,0 -1.59961,0.79297 -0.58789,0.78613 -0.58789,2.16015 0,1.37403 0.58105,2.167 0.58789,0.78613 1.60645,0.78613 1.00488,0 1.59277,-0.79297 0.58789,-0.79297 0.58789,-2.16016 0,-1.36035 -0.58789,-2.15332 -0.58789,-0.7998 -1.59277,-0.7998 z m 0,-1.06641 q 1.64062,0 2.57715,1.06641 0.93652,1.0664 0.93652,2.95312 0,1.87989 -0.93652,2.95313 -0.93653,1.0664 -2.57715,1.0664 -1.64746,0 -2.58399,-1.0664 -0.92968,-1.07324 -0.92968,-2.95313 0,-1.88672 0.92968,-2.95312 0.93653,-1.06641 2.58399,-1.06641 z"
         id="path3637"
         inkscape:connector-curvature="0" />
      <path
         d="m 328.98526,142.7596 0,1.17578 q -0.5332,-0.29395 -1.07324,-0.4375 -0.53321,-0.15039 -1.08008,-0.15039 -1.22363,0 -1.90039,0.7793 -0.67676,0.77246 -0.67676,2.17382 0,1.40137 0.67676,2.18067 0.67676,0.77246 1.90039,0.77246 0.54687,0 1.08008,-0.14356 0.54004,-0.15039 1.07324,-0.44433 l 0,1.16211 q -0.52637,0.24609 -1.09375,0.36914 -0.56055,0.12304 -1.19629,0.12304 -1.72949,0 -2.74805,-1.08691 -1.01855,-1.08691 -1.01855,-2.93262 0,-1.87304 1.02539,-2.94629 1.03223,-1.07324 2.82324,-1.07324 0.58106,0 1.13477,0.12305 0.55371,0.11621 1.07324,0.35547 z"
         id="path3639"
         inkscape:connector-curvature="0" />
      <path
         d="m 337.55069,145.50081 0,4.62109 -1.25781,0 0,-4.58008 q 0,-1.08691 -0.42383,-1.62695 -0.42383,-0.54004 -1.27149,-0.54004 -1.01855,0 -1.60644,0.64942 -0.58789,0.64941 -0.58789,1.7705 l 0,4.32715 -1.26465,0 0,-10.63672 1.26465,0 0,4.16993 q 0.45117,-0.69043 1.05957,-1.03223 0.61523,-0.3418 1.41504,-0.3418 1.31933,0 1.99609,0.82031 0.67676,0.81348 0.67676,2.39942 z"
         id="path3641"
         inkscape:connector-curvature="0" />
      <path
         d="m 343.55264,146.27327 q -1.52441,0 -2.1123,0.34863 -0.58789,0.34864 -0.58789,1.18946 0,0.66992 0.4375,1.0664 0.44433,0.38965 1.20312,0.38965 1.0459,0 1.67481,-0.73828 0.63574,-0.74512 0.63574,-1.97559 l 0,-0.28027 -1.25098,0 z m 2.50879,-0.51953 0,4.36816 -1.25781,0 0,-1.16211 q -0.43066,0.69727 -1.07324,1.03223 -0.64258,0.32812 -1.57227,0.32812 -1.17578,0 -1.87305,-0.65625 -0.69042,-0.66308 -0.69042,-1.7705 0,-1.292 0.86132,-1.94825 0.86817,-0.65625 2.58399,-0.65625 l 1.76367,0 0,-0.12304 q 0,-0.86817 -0.57422,-1.33985 -0.56738,-0.47851 -1.59961,-0.47851 -0.65625,0 -1.27832,0.15722 -0.62207,0.15723 -1.19629,0.47168 l 0,-1.1621 q 0.69043,-0.26661 1.33985,-0.39649 0.64941,-0.13672 1.26464,-0.13672 1.66114,0 2.48145,0.86133 0.82031,0.86133 0.82031,2.61133 z"
         id="path3643"
         inkscape:connector-curvature="0" />
    </g>
    <path
       style="display:inline;fill:none;fill-rule:evenodd;stroke:#000000;stroke-width:1.56450582px;stroke-linecap:butt;stroke-linejoin:miter;stroke-opacity:1"
       d="M 215.51328,22.756322 213.97709,193.02408"
       id="path3786"
       inkscape:connector-curvature="0" />
    <g
       transform="matrix(1.3605198,0,0,1.6534834,-226.17008,40.440224)"
       style="font-style:normal;font-weight:normal;font-size:10.43097401px;line-height:125%;font-family:Sans;letter-spacing:0px;word-spacing:0px;fill:#000000;fill-opacity:1;stroke:none;stroke-width:1px;stroke-linecap:butt;stroke-linejoin:miter;stroke-opacity:1"
       id="flowRoot3748-8">
      <path
         d="m 192.91962,27.144494 3.59074,0 0,0.865852 -4.8284,0 0,-0.865852 q 0.58572,-0.606097 1.59418,-1.624747 1.01356,-1.023743 1.27332,-1.319151 0.49404,-0.555165 0.68758,-0.937158 0.19864,-0.387087 0.19864,-0.758894 0,-0.606097 -0.42783,-0.988091 -0.42274,-0.381993 -1.10524,-0.381993 -0.48386,0 -1.02374,0.168077 -0.53479,0.168077 -1.14598,0.509325 l 0,-1.039023 q 0.62137,-0.249569 1.16126,-0.3769 0.53988,-0.127332 0.98809,-0.127332 1.18163,0 1.8845,0.590817 0.70287,0.590817 0.70287,1.578907 0,0.468579 -0.17826,0.891319 -0.17317,0.417646 -0.63666,0.98809 -0.12733,0.147705 -0.80983,0.855666 -0.68249,0.702868 -1.92524,1.971088 z"
         style="font-size:10.43097401px"
         id="path3646"
         inkscape:connector-curvature="0" />
      <path
         d="m 198.67499,26.716661 1.07467,0 0,1.293685 -1.07467,0 0,-1.293685 z"
         style="font-size:10.43097401px"
         id="path3648"
         inkscape:connector-curvature="0" />
      <path
         d="m 204.1706,20.406125 6.43278,0 0,0.865852 -2.69943,0 0,6.738369 -1.03393,0 0,-6.738369 -2.69942,0 0,-0.865852 z"
         style="font-size:10.43097401px"
         id="path3650"
         inkscape:connector-curvature="0" />
      <path
         d="m 216.30272,24.567309 0,3.443037 -0.93716,0 0,-3.412477 q 0,-0.809827 -0.31578,-1.212193 -0.31578,-0.402367 -0.94734,-0.402367 -0.7589,0 -1.19692,0.483859 -0.43802,0.483858 -0.43802,1.319151 l 0,3.224027 -0.94225,0 0,-7.925096 0.94225,0 0,3.106882 q 0.33616,-0.514418 0.78946,-0.76908 0.45839,-0.254663 1.0543,-0.254663 0.983,0 1.48723,0.61119 0.50423,0.606097 0.50423,1.78773 z"
         style="font-size:10.43097401px"
         id="path3652"
         inkscape:connector-curvature="0" />
      <path
         d="m 223.06146,24.923837 0,0.458392 -4.30888,0 q 0.0611,0.967718 0.58063,1.477043 0.5246,0.504231 1.45667,0.504231 0.53988,0 1.04411,-0.132424 0.50933,-0.132425 1.00846,-0.397274 l 0,0.886226 q -0.50423,0.213916 -1.03392,0.325968 -0.5297,0.112051 -1.07468,0.112051 -1.36499,0 -2.16463,-0.794547 -0.79455,-0.794547 -0.79455,-2.149351 0,-1.400643 0.7538,-2.220656 0.7589,-0.825107 2.0424,-0.825107 1.15107,0 1.81829,0.743615 0.6723,0.738521 0.6723,2.011833 z m -0.93715,-0.275036 q -0.0102,-0.76908 -0.43293,-1.227473 -0.41765,-0.458392 -1.11033,-0.458392 -0.78436,0 -1.25803,0.443113 -0.46858,0.443112 -0.53988,1.247846 l 3.34117,-0.0051 z"
         style="font-size:10.43097401px"
         id="path3654"
         inkscape:connector-curvature="0" />
      <path
         d="m 231.557,22.473984 0,0.886225 q -0.39727,-0.203729 -0.8251,-0.305594 -0.42783,-0.101865 -0.88623,-0.101865 -0.69777,0 -1.04921,0.213916 -0.34634,0.213916 -0.34634,0.641749 0,0.325968 0.24957,0.514419 0.24957,0.183357 1.00337,0.351434 l 0.32088,0.0713 q 0.99827,0.213917 1.41592,0.606097 0.42274,0.387087 0.42274,1.084862 0,0.794547 -0.63156,1.258032 -0.62647,0.463486 -1.72661,0.463486 -0.4584,0 -0.95754,-0.09168 -0.49404,-0.08659 -1.04411,-0.264849 l 0,-0.967718 q 0.51951,0.269943 1.02374,0.40746 0.50423,0.132425 0.99828,0.132425 0.66212,0 1.01865,-0.224103 0.35653,-0.229196 0.35653,-0.64175 0,-0.381993 -0.25976,-0.585723 -0.25466,-0.20373 -1.12561,-0.39218 l -0.32597,-0.0764 q -0.87094,-0.183357 -1.25803,-0.560258 -0.38709,-0.381993 -0.38709,-1.044116 0,-0.804733 0.57045,-1.242752 0.57044,-0.43802 1.61965,-0.43802 0.51951,0 0.97791,0.0764 0.45839,0.0764 0.84547,0.229196 z"
         style="font-size:10.43097401px"
         id="path3656"
         inkscape:connector-curvature="0" />
      <path
         d="m 238.23934,24.923837 0,0.458392 -4.30888,0 q 0.0611,0.967718 0.58063,1.477043 0.5246,0.504231 1.45666,0.504231 0.53989,0 1.04412,-0.132424 0.50933,-0.132425 1.00846,-0.397274 l 0,0.886226 q -0.50423,0.213916 -1.03393,0.325968 -0.52969,0.112051 -1.07467,0.112051 -1.36499,0 -2.16463,-0.794547 -0.79455,-0.794547 -0.79455,-2.149351 0,-1.400643 0.7538,-2.220656 0.7589,-0.825107 2.0424,-0.825107 1.15107,0 1.81828,0.743615 0.67231,0.738521 0.67231,2.011833 z m -0.93715,-0.275036 q -0.0102,-0.76908 -0.43293,-1.227473 -0.41765,-0.458392 -1.11033,-0.458392 -0.78436,0 -1.25803,0.443113 -0.46858,0.443112 -0.53989,1.247846 l 3.34118,-0.0051 z"
         style="font-size:10.43097401px"
         id="path3658"
         inkscape:connector-curvature="0" />
      <path
         d="m 243.08303,23.181946 q -0.1579,-0.09168 -0.34635,-0.132425 -0.18335,-0.04584 -0.40746,-0.04584 -0.79454,0 -1.22238,0.519511 -0.42273,0.514419 -0.42273,1.482136 l 0,3.005017 -0.94226,0 0,-5.704439 0.94226,0 0,0.886225 q 0.2954,-0.519511 0.76908,-0.76908 0.47367,-0.254663 1.15107,-0.254663 0.0968,0 0.21392,0.01528 0.11714,0.01019 0.25975,0.03565 l 0.005,0.962624 z"
         style="font-size:10.43097401px"
         id="path3660"
         inkscape:connector-curvature="0" />
      <path
         d="m 243.4039,22.305907 0.99318,0 1.78264,4.787654 1.78264,-4.787654 0.99318,0 -2.13916,5.704439 -1.27332,0 -2.13916,-5.704439 z"
         style="font-size:10.43097401px"
         id="path3662"
         inkscape:connector-curvature="0" />
      <path
         d="m 250.24923,22.305907 0.93716,0 0,5.704439 -0.93716,0 0,-5.704439 z m 0,-2.220657 0.93716,0 0,1.186727 -0.93716,0 0,-1.186727 z"
         style="font-size:10.43097401px"
         id="path3664"
         inkscape:connector-curvature="0" />
      <path
         d="m 257.24735,22.524917 0,0.876038 q -0.39727,-0.219009 -0.79964,-0.325967 -0.39727,-0.112052 -0.80473,-0.112052 -0.91169,0 -1.41593,0.58063 -0.50423,0.575538 -0.50423,1.619654 0,1.044116 0.50423,1.624746 0.50424,0.575537 1.41593,0.575537 0.40746,0 0.80473,-0.106958 0.40237,-0.112051 0.79964,-0.331061 l 0,0.865852 q -0.39218,0.183357 -0.81492,0.275036 -0.41765,0.09168 -0.89132,0.09168 -1.28859,0 -2.04748,-0.809827 -0.7589,-0.809826 -0.7589,-2.185003 0,-1.395551 0.76399,-2.195191 0.76908,-0.79964 2.10351,-0.79964 0.43293,0 0.84548,0.09168 0.41255,0.08658 0.79964,0.264849 z"
         style="font-size:10.43097401px"
         id="path3666"
         inkscape:connector-curvature="0" />
      <path
         d="m 263.76671,24.923837 0,0.458392 -4.30889,0 q 0.0611,0.967718 0.58063,1.477043 0.52461,0.504231 1.45667,0.504231 0.53989,0 1.04412,-0.132424 0.50932,-0.132425 1.00846,-0.397274 l 0,0.886226 q -0.50423,0.213916 -1.03393,0.325968 -0.5297,0.112051 -1.07467,0.112051 -1.365,0 -2.16464,-0.794547 -0.79454,-0.794547 -0.79454,-2.149351 0,-1.400643 0.7538,-2.220656 0.75889,-0.825107 2.04239,-0.825107 1.15108,0 1.81829,0.743615 0.67231,0.738521 0.67231,2.011833 z m -0.93716,-0.275036 q -0.0102,-0.76908 -0.43292,-1.227473 -0.41765,-0.458392 -1.11033,-0.458392 -0.78436,0 -1.25803,0.443113 -0.46858,0.443112 -0.53989,1.247846 l 3.34117,-0.0051 z"
         style="font-size:10.43097401px"
         id="path3668"
         inkscape:connector-curvature="0" />
      <path
         d="m 272.26225,22.473984 0,0.886225 q -0.39728,-0.203729 -0.82511,-0.305594 -0.42783,-0.101865 -0.88623,-0.101865 -0.69777,0 -1.0492,0.213916 -0.34635,0.213916 -0.34635,0.641749 0,0.325968 0.24957,0.514419 0.24957,0.183357 1.00337,0.351434 l 0.32088,0.0713 q 0.99828,0.213917 1.41592,0.606097 0.42274,0.387087 0.42274,1.084862 0,0.794547 -0.63156,1.258032 -0.62647,0.463486 -1.72661,0.463486 -0.4584,0 -0.95753,-0.09168 -0.49405,-0.08659 -1.04412,-0.264849 l 0,-0.967718 q 0.51951,0.269943 1.02374,0.40746 0.50424,0.132425 0.99828,0.132425 0.66212,0 1.01865,-0.224103 0.35653,-0.229196 0.35653,-0.64175 0,-0.381993 -0.25976,-0.585723 -0.25466,-0.20373 -1.12561,-0.39218 l -0.32596,-0.0764 q -0.87095,-0.183357 -1.25804,-0.560258 -0.38708,-0.381993 -0.38708,-1.044116 0,-0.804733 0.57044,-1.242752 0.57044,-0.43802 1.61965,-0.43802 0.51951,0 0.97791,0.0764 0.45839,0.0764 0.84548,0.229196 z"
         style="font-size:10.43097401px"
         id="path3670"
         inkscape:connector-curvature="0" />
      <path
         d="m 278.94459,24.923837 0,0.458392 -4.30889,0 q 0.0611,0.967718 0.58063,1.477043 0.52461,0.504231 1.45667,0.504231 0.53989,0 1.04412,-0.132424 0.50932,-0.132425 1.00846,-0.397274 l 0,0.886226 q -0.50423,0.213916 -1.03393,0.325968 -0.5297,0.112051 -1.07468,0.112051 -1.36499,0 -2.16463,-0.794547 -0.79454,-0.794547 -0.79454,-2.149351 0,-1.400643 0.7538,-2.220656 0.75889,-0.825107 2.04239,-0.825107 1.15108,0 1.81829,0.743615 0.67231,0.738521 0.67231,2.011833 z m -0.93716,-0.275036 q -0.0102,-0.76908 -0.43292,-1.227473 -0.41765,-0.458392 -1.11033,-0.458392 -0.78436,0 -1.25804,0.443113 -0.46857,0.443112 -0.53988,1.247846 l 3.34117,-0.0051 z"
         style="font-size:10.43097401px"
         id="path3672"
         inkscape:connector-curvature="0" />
      <path
         d="m 285.22457,24.567309 0,3.443037 -0.93716,0 0,-3.412477 q 0,-0.809827 -0.31578,-1.212193 -0.31578,-0.402367 -0.94735,-0.402367 -0.75889,0 -1.19691,0.483859 -0.43802,0.483858 -0.43802,1.319151 l 0,3.224027 -0.94225,0 0,-5.704439 0.94225,0 0,0.886225 q 0.33616,-0.514418 0.78945,-0.76908 0.4584,-0.254663 1.05431,-0.254663 0.98299,0 1.48723,0.61119 0.50423,0.606097 0.50423,1.78773 z"
         style="font-size:10.43097401px"
         id="path3674"
         inkscape:connector-curvature="0" />
      <path
         d="m 290.8577,23.171759 0,-3.086509 0.93716,0 0,7.925096 -0.93716,0 0,-0.855666 q -0.29541,0.509325 -0.74871,0.758894 -0.4482,0.244476 -1.07977,0.244476 -1.03393,0 -1.68586,-0.825106 -0.64684,-0.825107 -0.64684,-2.169724 0,-1.344618 0.64684,-2.169724 0.65193,-0.825107 1.68586,-0.825107 0.63157,0 1.07977,0.249569 0.4533,0.244476 0.74871,0.753801 z m -3.19347,1.991461 q 0,1.033929 0.42274,1.624746 0.42784,0.585724 1.17145,0.585724 0.74362,0 1.17145,-0.585724 0.42783,-0.590817 0.42783,-1.624746 0,-1.03393 -0.42783,-1.619654 -0.42783,-0.590816 -1.17145,-0.590816 -0.74361,0 -1.17145,0.590816 -0.42274,0.585724 -0.42274,1.619654 z"
         style="font-size:10.43097401px"
         id="path3676"
         inkscape:connector-curvature="0" />
      <path
         d="m 297.36178,22.473984 0,0.886225 q -0.39727,-0.203729 -0.82511,-0.305594 -0.42783,-0.101865 -0.88622,-0.101865 -0.69778,0 -1.04921,0.213916 -0.34634,0.213916 -0.34634,0.641749 0,0.325968 0.24957,0.514419 0.24957,0.183357 1.00337,0.351434 l 0.32087,0.0713 q 0.99828,0.213917 1.41592,0.606097 0.42274,0.387087 0.42274,1.084862 0,0.794547 -0.63156,1.258032 -0.62647,0.463486 -1.72661,0.463486 -0.45839,0 -0.95753,-0.09168 -0.49405,-0.08659 -1.04412,-0.264849 l 0,-0.967718 q 0.51951,0.269943 1.02375,0.40746 0.50423,0.132425 0.99827,0.132425 0.66213,0 1.01865,-0.224103 0.35653,-0.229196 0.35653,-0.64175 0,-0.381993 -0.25976,-0.585723 -0.25466,-0.20373 -1.1256,-0.39218 l -0.32597,-0.0764 q -0.87095,-0.183357 -1.25803,-0.560258 -0.38709,-0.381993 -0.38709,-1.044116 0,-0.804733 0.57044,-1.242752 0.57045,-0.43802 1.61966,-0.43802 0.51951,0 0.9779,0.0764 0.45839,0.0764 0.84548,0.229196 z"
         style="font-size:10.43097401px"
         id="path3678"
         inkscape:connector-curvature="0" />
      <path
         d="m 305.07805,25.142847 q -1.13579,0 -1.57381,0.259755 -0.43802,0.259756 -0.43802,0.886226 0,0.499138 0.32597,0.794547 0.33106,0.290315 0.89641,0.290315 0.77927,0 1.24785,-0.550071 0.47367,-0.555164 0.47367,-1.471949 l 0,-0.208823 -0.93207,0 z m 1.86923,-0.387087 0,3.254586 -0.93716,0 0,-0.865852 q -0.32088,0.519511 -0.79964,0.76908 -0.47877,0.244476 -1.17145,0.244476 -0.87604,0 -1.39555,-0.488952 -0.51442,-0.494045 -0.51442,-1.319151 0,-0.962624 0.64175,-1.451576 0.64685,-0.488952 1.92525,-0.488952 l 1.31406,0 0,-0.09168 q 0,-0.646842 -0.42783,-0.998277 -0.42274,-0.356527 -1.19182,-0.356527 -0.48896,0 -0.95244,0.117145 -0.46349,0.117145 -0.89132,0.351434 l 0,-0.865852 q 0.51442,-0.198637 0.99828,-0.295409 0.48386,-0.101865 0.94225,-0.101865 1.23766,0 1.84885,0.64175 0.61119,0.641749 0.61119,1.945621 z"
         style="font-size:10.43097401px"
         id="path3680"
         inkscape:connector-curvature="0" />
      <path
         d="m 313.62452,24.567309 0,3.443037 -0.93715,0 0,-3.412477 q 0,-0.809827 -0.31579,-1.212193 -0.31578,-0.402367 -0.94734,-0.402367 -0.75889,0 -1.19691,0.483859 -0.43802,0.483858 -0.43802,1.319151 l 0,3.224027 -0.94225,0 0,-5.704439 0.94225,0 0,0.886225 q 0.33615,-0.514418 0.78945,-0.76908 0.45839,-0.254663 1.0543,-0.254663 0.983,0 1.48723,0.61119 0.50423,0.606097 0.50423,1.78773 z"
         style="font-size:10.43097401px"
         id="path3682"
         inkscape:connector-curvature="0" />
      <path
         d="m 196.7803,37.962554 0,0.458393 -4.30889,0 q 0.0611,0.967717 0.58063,1.477042 0.5246,0.504231 1.45667,0.504231 0.53988,0 1.04412,-0.132424 0.50932,-0.132424 1.00846,-0.397273 l 0,0.886225 q -0.50423,0.213916 -1.03393,0.325968 -0.5297,0.112051 -1.07468,0.112051 -1.36499,0 -2.16463,-0.794547 -0.79454,-0.794546 -0.79454,-2.149351 0,-1.400643 0.7538,-2.220656 0.75889,-0.825107 2.04239,-0.825107 1.15107,0 1.81829,0.743615 0.67231,0.738521 0.67231,2.011833 z m -0.93716,-0.275035 q -0.0102,-0.769081 -0.43293,-1.227473 -0.41764,-0.458393 -1.11032,-0.458393 -0.78436,0 -1.25804,0.443113 -0.46858,0.443113 -0.53988,1.247846 l 3.34117,-0.0051 z"
         style="font-size:10.43097401px"
         id="path3684"
         inkscape:connector-curvature="0" />
      <path
         d="m 202.75977,36.439673 q 0.35144,-0.631563 0.84039,-0.932065 0.48895,-0.300502 1.15107,-0.300502 0.89132,0 1.37518,0.62647 0.48386,0.621376 0.48386,1.772451 l 0,3.443036 -0.94225,0 0,-3.412477 q 0,-0.820013 -0.29032,-1.217286 -0.29031,-0.397274 -0.88622,-0.397274 -0.72834,0 -1.15108,0.483859 -0.42274,0.483859 -0.42274,1.319151 l 0,3.224027 -0.94225,0 0,-3.412477 q 0,-0.825106 -0.29031,-1.217286 -0.29032,-0.397274 -0.89641,-0.397274 -0.71815,0 -1.14089,0.488952 -0.42274,0.483859 -0.42274,1.314058 l 0,3.224027 -0.94225,0 0,-5.704439 0.94225,0 0,0.886226 q 0.32087,-0.524605 0.76908,-0.774174 0.4482,-0.24957 1.06449,-0.24957 0.62137,0 1.0543,0.315782 0.43802,0.315781 0.64684,0.916785 z"
         style="font-size:10.43097401px"
         id="path3686"
         inkscape:connector-curvature="0" />
      <path
         d="m 211.07705,38.181564 q -1.1358,0 -1.57382,0.259756 -0.43802,0.259755 -0.43802,0.886225 0,0.499138 0.32597,0.794547 0.33106,0.290315 0.89641,0.290315 0.77927,0 1.24785,-0.550071 0.47367,-0.555164 0.47367,-1.471949 l 0,-0.208823 -0.93206,0 z m 1.86922,-0.387087 0,3.254586 -0.93716,0 0,-0.865852 q -0.32087,0.519511 -0.79964,0.76908 -0.47876,0.244476 -1.17145,0.244476 -0.87603,0 -1.39555,-0.488952 -0.51441,-0.494045 -0.51441,-1.319151 0,-0.962624 0.64175,-1.451576 0.64684,-0.488952 1.92524,-0.488952 l 1.31406,0 0,-0.09168 q 0,-0.646843 -0.42783,-0.998277 -0.42274,-0.356528 -1.19182,-0.356528 -0.48895,0 -0.95244,0.117145 -0.46348,0.117145 -0.89132,0.351434 l 0,-0.865852 q 0.51442,-0.198637 0.99828,-0.295409 0.48386,-0.101865 0.94225,-0.101865 1.23766,0 1.84885,0.64175 0.61119,0.641749 0.61119,1.945621 z"
         style="font-size:10.43097401px"
         id="path3688"
         inkscape:connector-curvature="0" />
      <path
         d="m 214.88171,35.344624 0.93715,0 0,5.704439 -0.93715,0 0,-5.704439 z m 0,-2.220656 0.93715,0 0,1.186727 -0.93715,0 0,-1.186727 z"
         style="font-size:10.43097401px"
         id="path3690"
         inkscape:connector-curvature="0" />
      <path
         d="m 217.77467,33.123968 0.93716,0 0,7.925095 -0.93716,0 0,-7.925095 z"
         style="font-size:10.43097401px"
         id="path3692"
         inkscape:connector-curvature="0" />
      <path
         d="m 226.23965,33.134154 q -0.68249,1.171447 -1.01355,2.317428 -0.33106,1.145981 -0.33106,2.322522 0,1.176541 0.33106,2.332708 0.33615,1.151074 1.01355,2.317428 l -0.81492,0 q -0.76398,-1.196913 -1.14598,-2.353081 -0.3769,-1.156167 -0.3769,-2.297055 0,-1.135795 0.3769,-2.286869 0.3769,-1.151074 1.14598,-2.353081 l 0.81492,0 z"
         style="font-size:10.43097401px"
         id="path3694"
         inkscape:connector-curvature="0" />
      <path
         d="m 232.94237,37.962554 0,0.458393 -4.30889,0 q 0.0611,0.967717 0.58063,1.477042 0.5246,0.504231 1.45667,0.504231 0.53988,0 1.04411,-0.132424 0.50933,-0.132424 1.00847,-0.397273 l 0,0.886225 q -0.50424,0.213916 -1.03393,0.325968 -0.5297,0.112051 -1.07468,0.112051 -1.36499,0 -2.16463,-0.794547 -0.79455,-0.794546 -0.79455,-2.149351 0,-1.400643 0.7538,-2.220656 0.7589,-0.825107 2.0424,-0.825107 1.15107,0 1.81829,0.743615 0.67231,0.738521 0.67231,2.011833 z m -0.93716,-0.275035 q -0.0102,-0.769081 -0.43293,-1.227473 -0.41764,-0.458393 -1.11033,-0.458393 -0.78436,0 -1.25803,0.443113 -0.46858,0.443113 -0.53988,1.247846 l 3.34117,-0.0051 z"
         style="font-size:10.43097401px"
         id="path3696"
         inkscape:connector-curvature="0" />
      <path
         d="m 239.03899,35.344624 -2.06277,2.775821 2.16972,2.928618 -1.10523,0 -1.6604,-2.241029 -1.6604,2.241029 -1.10523,0 2.21556,-2.984644 -2.02711,-2.719795 1.10523,0 1.5127,2.032207 1.51269,-2.032207 1.10524,0 z"
         style="font-size:10.43097401px"
         id="path3698"
         inkscape:connector-curvature="0" />
      <path
         d="m 243.06265,38.181564 q -1.13579,0 -1.57381,0.259756 -0.43802,0.259755 -0.43802,0.886225 0,0.499138 0.32597,0.794547 0.33106,0.290315 0.89641,0.290315 0.77926,0 1.24784,-0.550071 0.47368,-0.555164 0.47368,-1.471949 l 0,-0.208823 -0.93207,0 z m 1.86922,-0.387087 0,3.254586 -0.93715,0 0,-0.865852 q -0.32088,0.519511 -0.79964,0.76908 -0.47877,0.244476 -1.17145,0.244476 -0.87604,0 -1.39555,-0.488952 -0.51442,-0.494045 -0.51442,-1.319151 0,-0.962624 0.64175,-1.451576 0.64684,-0.488952 1.92525,-0.488952 l 1.31406,0 0,-0.09168 q 0,-0.646843 -0.42784,-0.998277 -0.42274,-0.356528 -1.19182,-0.356528 -0.48895,0 -0.95244,0.117145 -0.46348,0.117145 -0.89131,0.351434 l 0,-0.865852 q 0.51441,-0.198637 0.99827,-0.295409 0.48386,-0.101865 0.94225,-0.101865 1.23766,0 1.84885,0.64175 0.61119,0.641749 0.61119,1.945621 z"
         style="font-size:10.43097401px"
         id="path3700"
         inkscape:connector-curvature="0" />
      <path
         d="m 251.30862,36.439673 q 0.35144,-0.631563 0.84039,-0.932065 0.48895,-0.300502 1.15107,-0.300502 0.89132,0 1.37518,0.62647 0.48386,0.621376 0.48386,1.772451 l 0,3.443036 -0.94225,0 0,-3.412477 q 0,-0.820013 -0.29032,-1.217286 -0.29031,-0.397274 -0.88622,-0.397274 -0.72834,0 -1.15108,0.483859 -0.42274,0.483859 -0.42274,1.319151 l 0,3.224027 -0.94225,0 0,-3.412477 q 0,-0.825106 -0.29031,-1.217286 -0.29032,-0.397274 -0.89642,-0.397274 -0.71814,0 -1.14088,0.488952 -0.42274,0.483859 -0.42274,1.314058 l 0,3.224027 -0.94225,0 0,-5.704439 0.94225,0 0,0.886226 q 0.32087,-0.524605 0.76908,-0.774174 0.4482,-0.24957 1.06449,-0.24957 0.62137,0 1.0543,0.315782 0.43802,0.315781 0.64684,0.916785 z"
         style="font-size:10.43097401px"
         id="path3702"
         inkscape:connector-curvature="0" />
      <path
         d="m 257.94003,40.193397 0,3.02539 -0.94225,0 0,-7.874163 0.94225,0 0,0.865853 q 0.29541,-0.509325 0.74362,-0.753801 0.4533,-0.24957 1.07977,-0.24957 1.03902,0 1.68586,0.825107 0.65194,0.825106 0.65194,2.169724 0,1.344618 -0.65194,2.169724 -0.64684,0.825106 -1.68586,0.825106 -0.62647,0 -1.07977,-0.244476 -0.44821,-0.249569 -0.74362,-0.758894 z m 3.18838,-1.99146 q 0,-1.03393 -0.42784,-1.619653 -0.42274,-0.590817 -1.16635,-0.590817 -0.74361,0 -1.17145,0.590817 -0.42274,0.585723 -0.42274,1.619653 0,1.033929 0.42274,1.624746 0.42784,0.585724 1.17145,0.585724 0.74361,0 1.16635,-0.585724 0.42784,-0.590817 0.42784,-1.624746 z"
         style="font-size:10.43097401px"
         id="path3704"
         inkscape:connector-curvature="0" />
      <path
         d="m 263.65466,33.123968 0.93716,0 0,7.925095 -0.93716,0 0,-7.925095 z"
         style="font-size:10.43097401px"
         id="path3706"
         inkscape:connector-curvature="0" />
      <path
         d="m 271.42696,37.962554 0,0.458393 -4.30889,0 q 0.0611,0.967717 0.58063,1.477042 0.5246,0.504231 1.45667,0.504231 0.53988,0 1.04412,-0.132424 0.50932,-0.132424 1.00846,-0.397273 l 0,0.886225 q -0.50423,0.213916 -1.03393,0.325968 -0.5297,0.112051 -1.07468,0.112051 -1.36499,0 -2.16463,-0.794547 -0.79454,-0.794546 -0.79454,-2.149351 0,-1.400643 0.7538,-2.220656 0.75889,-0.825107 2.04239,-0.825107 1.15107,0 1.81829,0.743615 0.67231,0.738521 0.67231,2.011833 z m -0.93716,-0.275035 q -0.0102,-0.769081 -0.43293,-1.227473 -0.41764,-0.458393 -1.11032,-0.458393 -0.78436,0 -1.25804,0.443113 -0.46858,0.443113 -0.53988,1.247846 l 3.34117,-0.0051 z"
         style="font-size:10.43097401px"
         id="path3708"
         inkscape:connector-curvature="0" />
      <path
         d="m 273.2045,39.755378 1.07468,0 0,1.293685 -1.07468,0 0,-1.293685 z m 0,-4.100066 1.07468,0 0,1.293686 -1.07468,0 0,-1.293686 z"
         style="font-size:10.43097401px"
         id="path3710"
         inkscape:connector-curvature="0" />
      <path
         d="m 280.3707,38.201937 q 0,1.033929 0.42274,1.624746 0.42783,0.585724 1.17145,0.585724 0.74361,0 1.17144,-0.585724 0.42784,-0.590817 0.42784,-1.624746 0,-1.03393 -0.42784,-1.619653 -0.42783,-0.590817 -1.17144,-0.590817 -0.74362,0 -1.17145,0.590817 -0.42274,0.585723 -0.42274,1.619653 z m 3.19347,1.99146 q -0.29541,0.509325 -0.74871,0.758894 -0.44821,0.244476 -1.07977,0.244476 -1.03393,0 -1.68586,-0.825106 -0.64685,-0.825106 -0.64685,-2.169724 0,-1.344618 0.64685,-2.169724 0.65193,-0.825107 1.68586,-0.825107 0.63156,0 1.07977,0.24957 0.4533,0.244476 0.74871,0.753801 l 0,-0.865853 0.93716,0 0,7.874163 -0.93716,0 0,-3.02539 z"
         style="font-size:10.43097401px"
         id="path3712"
         inkscape:connector-curvature="0" />
      <path
         d="m 286.33489,38.797847 0,-3.453223 0.93716,0 0,3.41757 q 0,0.809827 0.31578,1.217287 0.31579,0.402366 0.94735,0.402366 0.75889,0 1.19691,-0.483858 0.44311,-0.483859 0.44311,-1.319152 l 0,-3.234213 0.93716,0 0,5.704439 -0.93716,0 0,-0.876039 q -0.34124,0.519512 -0.79454,0.774174 -0.44821,0.249569 -1.04412,0.249569 -0.983,0 -1.49232,-0.61119 -0.50933,-0.611189 -0.50933,-1.78773 z m 2.35818,-3.590741 0,0 z"
         style="font-size:10.43097401px"
         id="path3714"
         inkscape:connector-curvature="0" />
      <path
         d="m 295.26336,36.001653 q -0.7538,0 -1.19182,0.590817 -0.43802,0.585724 -0.43802,1.609467 0,1.023743 0.43293,1.61456 0.43802,0.585723 1.19691,0.585723 0.74871,0 1.18673,-0.590816 0.43802,-0.590817 0.43802,-1.609467 0,-1.013557 -0.43802,-1.604374 -0.43802,-0.59591 -1.18673,-0.59591 z m 0,-0.794547 q 1.22238,0 1.92015,0.794547 0.69778,0.794547 0.69778,2.200284 0,1.400643 -0.69778,2.200283 -0.69777,0.794547 -1.92015,0.794547 -1.22747,0 -1.92525,-0.794547 -0.69268,-0.79964 -0.69268,-2.200283 0,-1.405737 0.69268,-2.200284 0.69778,-0.794547 1.92525,-0.794547 z"
         style="font-size:10.43097401px"
         id="path3716"
         inkscape:connector-curvature="0" />
      <path
         d="m 300.35661,33.724971 0,1.619653 1.93034,0 0,0.728335 -1.93034,0 0,3.096695 q 0,0.697775 0.18845,0.896412 0.19354,0.198637 0.77927,0.198637 l 0.96262,0 0,0.78436 -0.96262,0 q -1.08487,0 -1.49742,-0.402367 -0.41255,-0.407459 -0.41255,-1.477042 l 0,-3.096695 -0.68759,0 0,-0.728335 0.68759,0 0,-1.619653 0.94225,0 z"
         style="font-size:10.43097401px"
         id="path3718"
         inkscape:connector-curvature="0" />
      <path
         d="m 306.11708,38.181564 q -1.1358,0 -1.57381,0.259756 -0.43802,0.259755 -0.43802,0.886225 0,0.499138 0.32596,0.794547 0.33106,0.290315 0.89642,0.290315 0.77926,0 1.24784,-0.550071 0.47367,-0.555164 0.47367,-1.471949 l 0,-0.208823 -0.93206,0 z m 1.86922,-0.387087 0,3.254586 -0.93716,0 0,-0.865852 q -0.32087,0.519511 -0.79964,0.76908 -0.47876,0.244476 -1.17144,0.244476 -0.87604,0 -1.39555,-0.488952 -0.51442,-0.494045 -0.51442,-1.319151 0,-0.962624 0.64175,-1.451576 0.64684,-0.488952 1.92525,-0.488952 l 1.31405,0 0,-0.09168 q 0,-0.646843 -0.42783,-0.998277 -0.42274,-0.356528 -1.19182,-0.356528 -0.48895,0 -0.95244,0.117145 -0.46348,0.117145 -0.89132,0.351434 l 0,-0.865852 q 0.51442,-0.198637 0.99828,-0.295409 0.48386,-0.101865 0.94225,-0.101865 1.23766,0 1.84885,0.64175 0.61119,0.641749 0.61119,1.945621 z"
         style="font-size:10.43097401px"
         id="path3720"
         inkscape:connector-curvature="0" />
      <path
         d="m 309.77403,33.134154 0.81492,0 q 0.76399,1.202007 1.14089,2.353081 0.38199,1.151074 0.38199,2.286869 0,1.140888 -0.38199,2.297055 -0.3769,1.156168 -1.14089,2.353081 l -0.81492,0 q 0.6774,-1.166354 1.00846,-2.317428 0.33616,-1.156167 0.33616,-2.332708 0,-1.176541 -0.33616,-2.322522 -0.33106,-1.145981 -1.00846,-2.317428 z"
         style="font-size:10.43097401px"
         id="path3722"
         inkscape:connector-curvature="0" />
    </g>
    <g
       style="font-style:normal;font-weight:normal;font-size:14px;line-height:125%;font-family:Sans;letter-spacing:0px;word-spacing:0px;fill:#000000;fill-opacity:1;stroke:none;stroke-width:1px;stroke-linecap:butt;stroke-linejoin:miter;stroke-opacity:1"
       id="flowRoot3816"
       transform="matrix(1.4803164,0,0,1.6534834,3.7330481,-103.6315)" />
    <g
       transform="matrix(1.3605198,0,0,1.6534834,94.663366,164.00101)"
       style="font-style:normal;font-weight:normal;font-size:14px;line-height:125%;font-family:Sans;letter-spacing:0px;word-spacing:0px;fill:#000000;fill-opacity:1;stroke:none;stroke-width:1px;stroke-linecap:butt;stroke-linejoin:miter;stroke-opacity:1"
       id="flowRoot3748-1">
      <path
         d="m 195.15046,23.91028 q 0.73852,0.157891 1.15107,0.657029 0.41765,0.499139 0.41765,1.232567 0,1.125608 -0.77417,1.741891 -0.77418,0.616283 -2.20029,0.616283 -0.47876,0 -0.98809,-0.09677 -0.50423,-0.09168 -1.04411,-0.280128 l 0,-0.993184 q 0.42783,0.249569 0.93715,0.376901 0.50933,0.127331 1.06449,0.127331 0.96772,0 1.47195,-0.381994 0.50933,-0.381994 0.50933,-1.110328 0,-0.672309 -0.47368,-1.04921 -0.46857,-0.381993 -1.30896,-0.381993 l -0.88623,0 0,-0.84548 0.92698,0 q 0.75889,0 1.16126,-0.300501 0.40236,-0.305595 0.40236,-0.876039 0,-0.585724 -0.41764,-0.896412 -0.41256,-0.315781 -1.18673,-0.315781 -0.42274,0 -0.9066,0.09168 -0.48386,0.09168 -1.06449,0.285222 l 0,-0.916785 q 0.58573,-0.162984 1.09505,-0.244476 0.51442,-0.08149 0.96772,-0.08149 1.17144,0 1.85394,0.534791 0.6825,0.529698 0.6825,1.436297 0,0.631563 -0.36163,1.069582 -0.36162,0.432926 -1.02883,0.601003 z"
         style="font-size:10.43097401px"
         id="path3726"
         inkscape:connector-curvature="0" />
      <path
         d="m 198.67499,26.716661 1.07467,0 0,1.293685 -1.07467,0 0,-1.293685 z"
         style="font-size:10.43097401px"
         id="path3728"
         inkscape:connector-curvature="0" />
      <path
         d="m 204.1706,20.406125 6.43278,0 0,0.865852 -2.69943,0 0,6.738369 -1.03393,0 0,-6.738369 -2.69942,0 0,-0.865852 z"
         style="font-size:10.43097401px"
         id="path3730"
         inkscape:connector-curvature="0" />
      <path
         d="m 214.66779,24.923837 0,0.458392 -4.30889,0 q 0.0611,0.967718 0.58063,1.477043 0.52461,0.504231 1.45667,0.504231 0.53988,0 1.04412,-0.132424 0.50932,-0.132425 1.00846,-0.397274 l 0,0.886226 q -0.50423,0.213916 -1.03393,0.325968 -0.5297,0.112051 -1.07468,0.112051 -1.36499,0 -2.16463,-0.794547 -0.79454,-0.794547 -0.79454,-2.149351 0,-1.400643 0.7538,-2.220656 0.75889,-0.825107 2.04239,-0.825107 1.15108,0 1.81829,0.743615 0.67231,0.738521 0.67231,2.011833 z m -0.93716,-0.275036 q -0.0102,-0.76908 -0.43292,-1.227473 -0.41765,-0.458392 -1.11033,-0.458392 -0.78436,0 -1.25804,0.443113 -0.46857,0.443112 -0.53988,1.247846 l 3.34117,-0.0051 z"
         style="font-size:10.43097401px"
         id="path3732"
         inkscape:connector-curvature="0" />
      <path
         d="m 219.84253,22.473984 0,0.886225 q -0.39727,-0.203729 -0.82511,-0.305594 -0.42783,-0.101865 -0.88622,-0.101865 -0.69778,0 -1.04921,0.213916 -0.34634,0.213916 -0.34634,0.641749 0,0.325968 0.24957,0.514419 0.24957,0.183357 1.00337,0.351434 l 0.32087,0.0713 q 0.99828,0.213917 1.41593,0.606097 0.42274,0.387087 0.42274,1.084862 0,0.794547 -0.63157,1.258032 -0.62647,0.463486 -1.72661,0.463486 -0.45839,0 -0.95753,-0.09168 -0.49404,-0.08659 -1.04412,-0.264849 l 0,-0.967718 q 0.51952,0.269943 1.02375,0.40746 0.50423,0.132425 0.99827,0.132425 0.66213,0 1.01865,-0.224103 0.35653,-0.229196 0.35653,-0.64175 0,-0.381993 -0.25975,-0.585723 -0.25467,-0.20373 -1.12561,-0.39218 l -0.32597,-0.0764 q -0.87095,-0.183357 -1.25803,-0.560258 -0.38709,-0.381993 -0.38709,-1.044116 0,-0.804733 0.57044,-1.242752 0.57045,-0.43802 1.61966,-0.43802 0.51951,0 0.9779,0.0764 0.45839,0.0764 0.84548,0.229196 z"
         style="font-size:10.43097401px"
         id="path3734"
         inkscape:connector-curvature="0" />
      <path
         d="m 222.57251,20.686254 0,1.619653 1.93034,0 0,0.728335 -1.93034,0 0,3.096695 q 0,0.697775 0.18845,0.896412 0.19355,0.198636 0.77927,0.198636 l 0.96262,0 0,0.784361 -0.96262,0 q -1.08486,0 -1.49742,-0.402367 -0.41255,-0.40746 -0.41255,-1.477042 l 0,-3.096695 -0.68759,0 0,-0.728335 0.68759,0 0,-1.619653 0.94225,0 z"
         style="font-size:10.43097401px"
         id="path3736"
         inkscape:connector-curvature="0" />
      <path
         d="m 233.94065,24.923837 0,0.458392 -4.30889,0 q 0.0611,0.967718 0.58063,1.477043 0.5246,0.504231 1.45667,0.504231 0.53988,0 1.04411,-0.132424 0.50933,-0.132425 1.00847,-0.397274 l 0,0.886226 q -0.50424,0.213916 -1.03393,0.325968 -0.5297,0.112051 -1.07468,0.112051 -1.36499,0 -2.16463,-0.794547 -0.79455,-0.794547 -0.79455,-2.149351 0,-1.400643 0.7538,-2.220656 0.7589,-0.825107 2.0424,-0.825107 1.15107,0 1.81829,0.743615 0.67231,0.738521 0.67231,2.011833 z m -0.93716,-0.275036 q -0.0102,-0.76908 -0.43293,-1.227473 -0.41765,-0.458392 -1.11033,-0.458392 -0.78436,0 -1.25803,0.443113 -0.46858,0.443112 -0.53988,1.247846 l 3.34117,-0.0051 z"
         style="font-size:10.43097401px"
         id="path3738"
         inkscape:connector-curvature="0" />
      <path
         d="m 240.03726,22.305907 -2.06276,2.775821 2.16972,2.928618 -1.10523,0 -1.6604,-2.24103 -1.6604,2.24103 -1.10524,0 2.21557,-2.984644 -2.02712,-2.719795 1.10524,0 1.51269,2.032206 1.5127,-2.032206 1.10523,0 z"
         style="font-size:10.43097401px"
         id="path3740"
         inkscape:connector-curvature="0" />
      <path
         d="m 242.37507,27.15468 0,3.02539 -0.94226,0 0,-7.874163 0.94226,0 0,0.865852 q 0.2954,-0.509325 0.74361,-0.753801 0.4533,-0.249569 1.07977,-0.249569 1.03902,0 1.68586,0.825107 0.65194,0.825106 0.65194,2.169724 0,1.344617 -0.65194,2.169724 -0.64684,0.825106 -1.68586,0.825106 -0.62647,0 -1.07977,-0.244476 -0.44821,-0.249569 -0.74361,-0.758894 z m 3.18837,-1.99146 q 0,-1.03393 -0.42783,-1.619654 -0.42274,-0.590816 -1.16636,-0.590816 -0.74361,0 -1.17145,0.590816 -0.42273,0.585724 -0.42273,1.619654 0,1.033929 0.42273,1.624746 0.42784,0.585724 1.17145,0.585724 0.74362,0 1.16636,-0.585724 0.42783,-0.590817 0.42783,-1.624746 z"
         style="font-size:10.43097401px"
         id="path3742"
         inkscape:connector-curvature="0" />
      <path
         d="m 252.96902,24.923837 0,0.458392 -4.30889,0 q 0.0611,0.967718 0.58063,1.477043 0.52461,0.504231 1.45667,0.504231 0.53989,0 1.04412,-0.132424 0.50932,-0.132425 1.00846,-0.397274 l 0,0.886226 q -0.50423,0.213916 -1.03393,0.325968 -0.52969,0.112051 -1.07467,0.112051 -1.36499,0 -2.16463,-0.794547 -0.79455,-0.794547 -0.79455,-2.149351 0,-1.400643 0.7538,-2.220656 0.7589,-0.825107 2.04239,-0.825107 1.15108,0 1.81829,0.743615 0.67231,0.738521 0.67231,2.011833 z m -0.93715,-0.275036 q -0.0102,-0.76908 -0.43293,-1.227473 -0.41765,-0.458392 -1.11033,-0.458392 -0.78436,0 -1.25803,0.443113 -0.46858,0.443112 -0.53989,1.247846 l 3.34118,-0.0051 z"
         style="font-size:10.43097401px"
         id="path3744"
         inkscape:connector-curvature="0" />
      <path
         d="m 258.61234,22.524917 0,0.876038 q -0.39727,-0.219009 -0.79964,-0.325967 -0.39727,-0.112052 -0.80473,-0.112052 -0.91169,0 -1.41593,0.58063 -0.50423,0.575538 -0.50423,1.619654 0,1.044116 0.50423,1.624746 0.50424,0.575537 1.41593,0.575537 0.40746,0 0.80473,-0.106958 0.40237,-0.112051 0.79964,-0.331061 l 0,0.865852 q -0.39218,0.183357 -0.81492,0.275036 -0.41765,0.09168 -0.89132,0.09168 -1.28859,0 -2.04748,-0.809827 -0.7589,-0.809826 -0.7589,-2.185003 0,-1.395551 0.76399,-2.195191 0.76908,-0.79964 2.10351,-0.79964 0.43293,0 0.84548,0.09168 0.41255,0.08658 0.79964,0.264849 z"
         style="font-size:10.43097401px"
         id="path3747"
         inkscape:connector-curvature="0" />
      <path
         d="m 261.17934,20.686254 0,1.619653 1.93034,0 0,0.728335 -1.93034,0 0,3.096695 q 0,0.697775 0.18845,0.896412 0.19354,0.198636 0.77927,0.198636 l 0.96262,0 0,0.784361 -0.96262,0 q -1.08487,0 -1.49742,-0.402367 -0.41255,-0.40746 -0.41255,-1.477042 l 0,-3.096695 -0.68759,0 0,-0.728335 0.68759,0 0,-1.619653 0.94225,0 z"
         style="font-size:10.43097401px"
         id="path3749"
         inkscape:connector-curvature="0" />
      <path
         d="m 268.59511,20.686254 0,1.619653 1.93034,0 0,0.728335 -1.93034,0 0,3.096695 q 0,0.697775 0.18845,0.896412 0.19354,0.198636 0.77927,0.198636 l 0.96262,0 0,0.784361 -0.96262,0 q -1.08486,0 -1.49742,-0.402367 -0.41255,-0.40746 -0.41255,-1.477042 l 0,-3.096695 -0.68759,0 0,-0.728335 0.68759,0 0,-1.619653 0.94225,0 z"
         style="font-size:10.43097401px"
         id="path3751"
         inkscape:connector-curvature="0" />
      <path
         d="m 273.97358,22.962936 q -0.7538,0 -1.19182,0.590817 -0.43802,0.585724 -0.43802,1.609467 0,1.023743 0.43293,1.61456 0.43802,0.585723 1.19691,0.585723 0.74871,0 1.18673,-0.590817 0.43802,-0.590817 0.43802,-1.609466 0,-1.013557 -0.43802,-1.604374 -0.43802,-0.59591 -1.18673,-0.59591 z m 0,-0.794547 q 1.22238,0 1.92016,0.794547 0.69777,0.794547 0.69777,2.200284 0,1.400643 -0.69777,2.200283 -0.69778,0.794547 -1.92016,0.794547 -1.22747,0 -1.92525,-0.794547 -0.69268,-0.79964 -0.69268,-2.200283 0,-1.405737 0.69268,-2.200284 0.69778,-0.794547 1.92525,-0.794547 z"
         style="font-size:10.43097401px"
         id="path3753"
         inkscape:connector-curvature="0" />
      <path
         d="m 282.36726,27.15468 0,3.02539 -0.94225,0 0,-7.874163 0.94225,0 0,0.865852 q 0.2954,-0.509325 0.74361,-0.753801 0.4533,-0.249569 1.07977,-0.249569 1.03902,0 1.68587,0.825107 0.65193,0.825106 0.65193,2.169724 0,1.344617 -0.65193,2.169724 -0.64685,0.825106 -1.68587,0.825106 -0.62647,0 -1.07977,-0.244476 -0.44821,-0.249569 -0.74361,-0.758894 z m 3.18837,-1.99146 q 0,-1.03393 -0.42783,-1.619654 -0.42274,-0.590816 -1.16636,-0.590816 -0.74361,0 -1.17144,0.590816 -0.42274,0.585724 -0.42274,1.619654 0,1.033929 0.42274,1.624746 0.42783,0.585724 1.17144,0.585724 0.74362,0 1.16636,-0.585724 0.42783,-0.590817 0.42783,-1.624746 z"
         style="font-size:10.43097401px"
         id="path3755"
         inkscape:connector-curvature="0" />
      <path
         d="m 290.29235,22.962936 q -0.7538,0 -1.19182,0.590817 -0.43802,0.585724 -0.43802,1.609467 0,1.023743 0.43293,1.61456 0.43802,0.585723 1.19691,0.585723 0.74871,0 1.18673,-0.590817 0.43802,-0.590817 0.43802,-1.609466 0,-1.013557 -0.43802,-1.604374 -0.43802,-0.59591 -1.18673,-0.59591 z m 0,-0.794547 q 1.22238,0 1.92016,0.794547 0.69777,0.794547 0.69777,2.200284 0,1.400643 -0.69777,2.200283 -0.69778,0.794547 -1.92016,0.794547 -1.22747,0 -1.92525,-0.794547 -0.69268,-0.79964 -0.69268,-2.200283 0,-1.405737 0.69268,-2.200284 0.69778,-0.794547 1.92525,-0.794547 z"
         style="font-size:10.43097401px"
         id="path3757"
         inkscape:connector-curvature="0" />
      <path
         d="m 295.36523,27.15468 0,3.02539 -0.94225,0 0,-7.874163 0.94225,0 0,0.865852 q 0.29541,-0.509325 0.74361,-0.753801 0.4533,-0.249569 1.07977,-0.249569 1.03902,0 1.68587,0.825107 0.65193,0.825106 0.65193,2.169724 0,1.344617 -0.65193,2.169724 -0.64685,0.825106 -1.68587,0.825106 -0.62647,0 -1.07977,-0.244476 -0.4482,-0.249569 -0.74361,-0.758894 z m 3.18837,-1.99146 q 0,-1.03393 -0.42783,-1.619654 -0.42274,-0.590816 -1.16636,-0.590816 -0.74361,0 -1.17144,0.590816 -0.42274,0.585724 -0.42274,1.619654 0,1.033929 0.42274,1.624746 0.42783,0.585724 1.17144,0.585724 0.74362,0 1.16636,-0.585724 0.42783,-0.590817 0.42783,-1.624746 z"
         style="font-size:10.43097401px"
         id="path3759"
         inkscape:connector-curvature="0" />
      <path
         d="m 306.61112,22.962936 q -0.7538,0 -1.19182,0.590817 -0.43802,0.585724 -0.43802,1.609467 0,1.023743 0.43293,1.61456 0.43802,0.585723 1.19691,0.585723 0.74871,0 1.18673,-0.590817 0.43802,-0.590817 0.43802,-1.609466 0,-1.013557 -0.43802,-1.604374 -0.43802,-0.59591 -1.18673,-0.59591 z m 0,-0.794547 q 1.22238,0 1.92016,0.794547 0.69777,0.794547 0.69777,2.200284 0,1.400643 -0.69777,2.200283 -0.69778,0.794547 -1.92016,0.794547 -1.22747,0 -1.92525,-0.794547 -0.69268,-0.79964 -0.69268,-2.200283 0,-1.405737 0.69268,-2.200284 0.69778,-0.794547 1.92525,-0.794547 z"
         style="font-size:10.43097401px"
         id="path3761"
         inkscape:connector-curvature="0" />
      <path
         d="m 315.51921,24.567309 0,3.443037 -0.93715,0 0,-3.412477 q 0,-0.809827 -0.31578,-1.212193 -0.31579,-0.402367 -0.94735,-0.402367 -0.75889,0 -1.19691,0.483859 -0.43802,0.483858 -0.43802,1.319151 l 0,3.224027 -0.94225,0 0,-5.704439 0.94225,0 0,0.886225 q 0.33615,-0.514418 0.78945,-0.76908 0.45839,-0.254663 1.0543,-0.254663 0.983,0 1.48723,0.61119 0.50423,0.606097 0.50423,1.78773 z"
         style="font-size:10.43097401px"
         id="path3763"
         inkscape:connector-curvature="0" />
      <path
         d="m 322.27796,24.923837 0,0.458392 -4.30889,0 q 0.0611,0.967718 0.58063,1.477043 0.5246,0.504231 1.45667,0.504231 0.53988,0 1.04411,-0.132424 0.50933,-0.132425 1.00847,-0.397274 l 0,0.886226 q -0.50424,0.213916 -1.03393,0.325968 -0.5297,0.112051 -1.07468,0.112051 -1.36499,0 -2.16463,-0.794547 -0.79455,-0.794547 -0.79455,-2.149351 0,-1.400643 0.7538,-2.220656 0.7589,-0.825107 2.0424,-0.825107 1.15107,0 1.81829,0.743615 0.67231,0.738521 0.67231,2.011833 z m -0.93716,-0.275036 q -0.0102,-0.76908 -0.43293,-1.227473 -0.41764,-0.458392 -1.11033,-0.458392 -0.78436,0 -1.25803,0.443113 -0.46858,0.443112 -0.53988,1.247846 l 3.34117,-0.0051 z"
         style="font-size:10.43097401px"
         id="path3765"
         inkscape:connector-curvature="0" />
      <path
         d="m 196.7803,37.962554 0,0.458393 -4.30889,0 q 0.0611,0.967717 0.58063,1.477042 0.5246,0.504231 1.45667,0.504231 0.53988,0 1.04412,-0.132424 0.50932,-0.132424 1.00846,-0.397273 l 0,0.886225 q -0.50423,0.213916 -1.03393,0.325968 -0.5297,0.112051 -1.07468,0.112051 -1.36499,0 -2.16463,-0.794547 -0.79454,-0.794546 -0.79454,-2.149351 0,-1.400643 0.7538,-2.220656 0.75889,-0.825107 2.04239,-0.825107 1.15107,0 1.81829,0.743615 0.67231,0.738521 0.67231,2.011833 z m -0.93716,-0.275035 q -0.0102,-0.769081 -0.43293,-1.227473 -0.41764,-0.458393 -1.11032,-0.458393 -0.78436,0 -1.25804,0.443113 -0.46858,0.443113 -0.53988,1.247846 l 3.34117,-0.0051 z"
         style="font-size:10.43097401px"
         id="path3767"
         inkscape:connector-curvature="0" />
      <path
         d="m 202.75977,36.439673 q 0.35144,-0.631563 0.84039,-0.932065 0.48895,-0.300502 1.15107,-0.300502 0.89132,0 1.37518,0.62647 0.48386,0.621376 0.48386,1.772451 l 0,3.443036 -0.94225,0 0,-3.412477 q 0,-0.820013 -0.29032,-1.217286 -0.29031,-0.397274 -0.88622,-0.397274 -0.72834,0 -1.15108,0.483859 -0.42274,0.483859 -0.42274,1.319151 l 0,3.224027 -0.94225,0 0,-3.412477 q 0,-0.825106 -0.29031,-1.217286 -0.29032,-0.397274 -0.89641,-0.397274 -0.71815,0 -1.14089,0.488952 -0.42274,0.483859 -0.42274,1.314058 l 0,3.224027 -0.94225,0 0,-5.704439 0.94225,0 0,0.886226 q 0.32087,-0.524605 0.76908,-0.774174 0.4482,-0.24957 1.06449,-0.24957 0.62137,0 1.0543,0.315782 0.43802,0.315781 0.64684,0.916785 z"
         style="font-size:10.43097401px"
         id="path3769"
         inkscape:connector-curvature="0" />
      <path
         d="m 211.07705,38.181564 q -1.1358,0 -1.57382,0.259756 -0.43802,0.259755 -0.43802,0.886225 0,0.499138 0.32597,0.794547 0.33106,0.290315 0.89641,0.290315 0.77927,0 1.24785,-0.550071 0.47367,-0.555164 0.47367,-1.471949 l 0,-0.208823 -0.93206,0 z m 1.86922,-0.387087 0,3.254586 -0.93716,0 0,-0.865852 q -0.32087,0.519511 -0.79964,0.76908 -0.47876,0.244476 -1.17145,0.244476 -0.87603,0 -1.39555,-0.488952 -0.51441,-0.494045 -0.51441,-1.319151 0,-0.962624 0.64175,-1.451576 0.64684,-0.488952 1.92524,-0.488952 l 1.31406,0 0,-0.09168 q 0,-0.646843 -0.42783,-0.998277 -0.42274,-0.356528 -1.19182,-0.356528 -0.48895,0 -0.95244,0.117145 -0.46348,0.117145 -0.89132,0.351434 l 0,-0.865852 q 0.51442,-0.198637 0.99828,-0.295409 0.48386,-0.101865 0.94225,-0.101865 1.23766,0 1.84885,0.64175 0.61119,0.641749 0.61119,1.945621 z"
         style="font-size:10.43097401px"
         id="path3771"
         inkscape:connector-curvature="0" />
      <path
         d="m 214.88171,35.344624 0.93715,0 0,5.704439 -0.93715,0 0,-5.704439 z m 0,-2.220656 0.93715,0 0,1.186727 -0.93715,0 0,-1.186727 z"
         style="font-size:10.43097401px"
         id="path3773"
         inkscape:connector-curvature="0" />
      <path
         d="m 217.77467,33.123968 0.93716,0 0,7.925095 -0.93716,0 0,-7.925095 z"
         style="font-size:10.43097401px"
         id="path3775"
         inkscape:connector-curvature="0" />
      <path
         d="m 223.44346,35.344624 0.93716,0 1.17144,4.4515 1.16636,-4.4515 1.10523,0 1.17145,4.4515 1.16635,-4.4515 0.93716,0 -1.49232,5.704439 -1.10523,0 -1.22748,-4.675602 -1.23256,4.675602 -1.10524,0 -1.49232,-5.704439 z"
         style="font-size:10.43097401px"
         id="path3777"
         inkscape:connector-curvature="0" />
      <path
         d="m 232.52472,35.344624 0.93716,0 0,5.704439 -0.93716,0 0,-5.704439 z m 0,-2.220656 0.93716,0 0,1.186727 -0.93716,0 0,-1.186727 z"
         style="font-size:10.43097401px"
         id="path3779"
         inkscape:connector-curvature="0" />
      <path
         d="m 236.34466,33.724971 0,1.619653 1.93034,0 0,0.728335 -1.93034,0 0,3.096695 q 0,0.697775 0.18845,0.896412 0.19354,0.198637 0.77926,0.198637 l 0.96263,0 0,0.78436 -0.96263,0 q -1.08486,0 -1.49741,-0.402367 -0.41255,-0.407459 -0.41255,-1.477042 l 0,-3.096695 -0.68759,0 0,-0.728335 0.68759,0 0,-1.619653 0.94225,0 z"
         style="font-size:10.43097401px"
         id="path3781"
         inkscape:connector-curvature="0" />
      <path
         d="m 244.25447,37.606027 0,3.443036 -0.93715,0 0,-3.412477 q 0,-0.809826 -0.31578,-1.212193 -0.31579,-0.402367 -0.94735,-0.402367 -0.75889,0 -1.19691,0.483859 -0.43802,0.483859 -0.43802,1.319151 l 0,3.224027 -0.94225,0 0,-7.925095 0.94225,0 0,3.106882 q 0.33615,-0.514419 0.78945,-0.769081 0.45839,-0.254663 1.0543,-0.254663 0.983,0 1.48723,0.61119 0.50423,0.606097 0.50423,1.787731 z"
         style="font-size:10.43097401px"
         id="path3783"
         inkscape:connector-curvature="0" />
      <path
         d="m 252.04714,38.181564 q -1.13579,0 -1.57381,0.259756 -0.43802,0.259755 -0.43802,0.886225 0,0.499138 0.32597,0.794547 0.33106,0.290315 0.89641,0.290315 0.77927,0 1.24785,-0.550071 0.47367,-0.555164 0.47367,-1.471949 l 0,-0.208823 -0.93207,0 z m 1.86923,-0.387087 0,3.254586 -0.93716,0 0,-0.865852 q -0.32088,0.519511 -0.79964,0.76908 -0.47877,0.244476 -1.17145,0.244476 -0.87604,0 -1.39555,-0.488952 -0.51442,-0.494045 -0.51442,-1.319151 0,-0.962624 0.64175,-1.451576 0.64685,-0.488952 1.92525,-0.488952 l 1.31406,0 0,-0.09168 q 0,-0.646843 -0.42783,-0.998277 -0.42274,-0.356528 -1.19182,-0.356528 -0.48896,0 -0.95244,0.117145 -0.46349,0.117145 -0.89132,0.351434 l 0,-0.865852 q 0.51442,-0.198637 0.99828,-0.295409 0.48386,-0.101865 0.94225,-0.101865 1.23766,0 1.84885,0.64175 0.61119,0.641749 0.61119,1.945621 z"
         style="font-size:10.43097401px"
         id="path3785"
         inkscape:connector-curvature="0" />
      <path
         d="m 260.09957,33.724971 0,1.619653 1.93035,0 0,0.728335 -1.93035,0 0,3.096695 q 0,0.697775 0.18845,0.896412 0.19355,0.198637 0.77927,0.198637 l 0.96263,0 0,0.78436 -0.96263,0 q -1.08486,0 -1.49741,-0.402367 -0.41256,-0.407459 -0.41256,-1.477042 l 0,-3.096695 -0.68759,0 0,-0.728335 0.68759,0 0,-1.619653 0.94225,0 z"
         style="font-size:10.43097401px"
         id="path3787"
         inkscape:connector-curvature="0" />
      <path
         d="m 263.26757,35.344624 0.93716,0 0,5.704439 -0.93716,0 0,-5.704439 z m 0,-2.220656 0.93716,0 0,1.186727 -0.93716,0 0,-1.186727 z"
         style="font-size:10.43097401px"
         id="path3789"
         inkscape:connector-curvature="0" />
      <path
         d="m 267.08751,33.724971 0,1.619653 1.93034,0 0,0.728335 -1.93034,0 0,3.096695 q 0,0.697775 0.18845,0.896412 0.19355,0.198637 0.77927,0.198637 l 0.96262,0 0,0.78436 -0.96262,0 q -1.08486,0 -1.49742,-0.402367 -0.41255,-0.407459 -0.41255,-1.477042 l 0,-3.096695 -0.68759,0 0,-0.728335 0.68759,0 0,-1.619653 0.94225,0 z"
         style="font-size:10.43097401px"
         id="path3791"
         inkscape:connector-curvature="0" />
      <path
         d="m 270.25551,33.123968 0.93716,0 0,7.925095 -0.93716,0 0,-7.925095 z"
         style="font-size:10.43097401px"
         id="path3793"
         inkscape:connector-curvature="0" />
      <path
         d="m 278.02781,37.962554 0,0.458393 -4.30889,0 q 0.0611,0.967717 0.58063,1.477042 0.52461,0.504231 1.45667,0.504231 0.53989,0 1.04412,-0.132424 0.50932,-0.132424 1.00846,-0.397273 l 0,0.886225 q -0.50423,0.213916 -1.03393,0.325968 -0.5297,0.112051 -1.07467,0.112051 -1.36499,0 -2.16463,-0.794547 -0.79455,-0.794546 -0.79455,-2.149351 0,-1.400643 0.7538,-2.220656 0.75889,-0.825107 2.04239,-0.825107 1.15108,0 1.81829,0.743615 0.67231,0.738521 0.67231,2.011833 z m -0.93716,-0.275035 q -0.0102,-0.769081 -0.43292,-1.227473 -0.41765,-0.458393 -1.11033,-0.458393 -0.78436,0 -1.25803,0.443113 -0.46858,0.443113 -0.53989,1.247846 l 3.34117,-0.0051 z"
         style="font-size:10.43097401px"
         id="path3795"
         inkscape:connector-curvature="0" />
      <path
         d="m 285.47923,38.181564 q -1.13579,0 -1.57381,0.259756 -0.43802,0.259755 -0.43802,0.886225 0,0.499138 0.32597,0.794547 0.33106,0.290315 0.89641,0.290315 0.77926,0 1.24784,-0.550071 0.47368,-0.555164 0.47368,-1.471949 l 0,-0.208823 -0.93207,0 z m 1.86922,-0.387087 0,3.254586 -0.93715,0 0,-0.865852 q -0.32088,0.519511 -0.79964,0.76908 -0.47877,0.244476 -1.17145,0.244476 -0.87604,0 -1.39555,-0.488952 -0.51442,-0.494045 -0.51442,-1.319151 0,-0.962624 0.64175,-1.451576 0.64684,-0.488952 1.92525,-0.488952 l 1.31406,0 0,-0.09168 q 0,-0.646843 -0.42784,-0.998277 -0.42274,-0.356528 -1.19182,-0.356528 -0.48895,0 -0.95243,0.117145 -0.46349,0.117145 -0.89132,0.351434 l 0,-0.865852 q 0.51441,-0.198637 0.99827,-0.295409 0.48386,-0.101865 0.94225,-0.101865 1.23766,0 1.84885,0.64175 0.61119,0.641749 0.61119,1.945621 z"
         style="font-size:10.43097401px"
         id="path3797"
         inkscape:connector-curvature="0" />
      <path
         d="m 294.0257,37.606027 0,3.443036 -0.93716,0 0,-3.412477 q 0,-0.809826 -0.31578,-1.212193 -0.31578,-0.402367 -0.94734,-0.402367 -0.7589,0 -1.19692,0.483859 -0.43802,0.483859 -0.43802,1.319151 l 0,3.224027 -0.94225,0 0,-5.704439 0.94225,0 0,0.886226 q 0.33616,-0.514419 0.78946,-0.769081 0.45839,-0.254663 1.0543,-0.254663 0.983,0 1.48723,0.61119 0.50423,0.606097 0.50423,1.787731 z"
         style="font-size:10.43097401px"
         id="path3799"
         inkscape:connector-curvature="0" />
      <path
         d="m 299.65884,36.210477 0,-3.086509 0.93716,0 0,7.925095 -0.93716,0 0,-0.855666 q -0.29541,0.509325 -0.74871,0.758894 -0.4482,0.244476 -1.07977,0.244476 -1.03393,0 -1.68586,-0.825106 -0.64684,-0.825106 -0.64684,-2.169724 0,-1.344618 0.64684,-2.169724 0.65193,-0.825107 1.68586,-0.825107 0.63157,0 1.07977,0.24957 0.4533,0.244476 0.74871,0.753801 z m -3.19347,1.99146 q 0,1.033929 0.42274,1.624746 0.42784,0.585724 1.17145,0.585724 0.74361,0 1.17145,-0.585724 0.42783,-0.590817 0.42783,-1.624746 0,-1.03393 -0.42783,-1.619653 -0.42784,-0.590817 -1.17145,-0.590817 -0.74361,0 -1.17145,0.590817 -0.42274,0.585723 -0.42274,1.619653 z"
         style="font-size:10.43097401px"
         id="path3801"
         inkscape:connector-curvature="0" />
      <path
         d="m 308.4396,38.181564 q -1.1358,0 -1.57382,0.259756 -0.43802,0.259755 -0.43802,0.886225 0,0.499138 0.32597,0.794547 0.33106,0.290315 0.89641,0.290315 0.77927,0 1.24785,-0.550071 0.47367,-0.555164 0.47367,-1.471949 l 0,-0.208823 -0.93206,0 z m 1.86922,-0.387087 0,3.254586 -0.93716,0 0,-0.865852 q -0.32087,0.519511 -0.79964,0.76908 -0.47876,0.244476 -1.17145,0.244476 -0.87604,0 -1.39555,-0.488952 -0.51441,-0.494045 -0.51441,-1.319151 0,-0.962624 0.64174,-1.451576 0.64685,-0.488952 1.92525,-0.488952 l 1.31406,0 0,-0.09168 q 0,-0.646843 -0.42783,-0.998277 -0.42274,-0.356528 -1.19182,-0.356528 -0.48895,0 -0.95244,0.117145 -0.46349,0.117145 -0.89132,0.351434 l 0,-0.865852 q 0.51442,-0.198637 0.99828,-0.295409 0.48386,-0.101865 0.94225,-0.101865 1.23766,0 1.84885,0.64175 0.61119,0.641749 0.61119,1.945621 z"
         style="font-size:10.43097401px"
         id="path3803"
         inkscape:connector-curvature="0" />
      <path
         d="m 195.99594,51.240654 q 0,-1.033929 -0.42783,-1.619653 -0.42274,-0.590817 -1.16636,-0.590817 -0.74361,0 -1.17145,0.590817 -0.42274,0.585724 -0.42274,1.619653 0,1.03393 0.42274,1.624747 0.42784,0.585723 1.17145,0.585723 0.74362,0 1.16636,-0.585723 0.42783,-0.590817 0.42783,-1.624747 z m -3.18838,-1.99146 q 0.29541,-0.509325 0.74362,-0.753801 0.4533,-0.249569 1.07977,-0.249569 1.03902,0 1.68586,0.825106 0.65194,0.825106 0.65194,2.169724 0,1.344618 -0.65194,2.169724 -0.64684,0.825107 -1.68586,0.825107 -0.62647,0 -1.07977,-0.244476 -0.44821,-0.24957 -0.74362,-0.758894 l 0,0.855665 -0.94225,0 0,-7.925095 0.94225,0 0,3.086509 z"
         style="font-size:10.43097401px"
         id="path3805"
         inkscape:connector-curvature="0" />
      <path
         d="m 200.73266,49.040371 q -0.7538,0 -1.19182,0.590816 -0.43802,0.585724 -0.43802,1.609467 0,1.023743 0.43293,1.61456 0.43802,0.585724 1.19691,0.585724 0.74871,0 1.18673,-0.590817 0.43802,-0.590817 0.43802,-1.609467 0,-1.013556 -0.43802,-1.604373 -0.43802,-0.59591 -1.18673,-0.59591 z m 0,-0.794547 q 1.22238,0 1.92015,0.794547 0.69778,0.794546 0.69778,2.200283 0,1.400644 -0.69778,2.200284 -0.69777,0.794547 -1.92015,0.794547 -1.22747,0 -1.92525,-0.794547 -0.69268,-0.79964 -0.69268,-2.200284 0,-1.405737 0.69268,-2.200283 0.69778,-0.794547 1.92525,-0.794547 z"
         style="font-size:10.43097401px"
         id="path3807"
         inkscape:connector-curvature="0" />
      <path
         d="m 208.65266,49.249194 0,-3.086509 0.93716,0 0,7.925095 -0.93716,0 0,-0.855665 q -0.29541,0.509324 -0.74871,0.758894 -0.4482,0.244476 -1.07976,0.244476 -1.03393,0 -1.68587,-0.825107 -0.64684,-0.825106 -0.64684,-2.169724 0,-1.344618 0.64684,-2.169724 0.65194,-0.825106 1.68587,-0.825106 0.63156,0 1.07976,0.249569 0.4533,0.244476 0.74871,0.753801 z m -3.19347,1.99146 q 0,1.03393 0.42274,1.624747 0.42784,0.585723 1.17145,0.585723 0.74362,0 1.17145,-0.585723 0.42783,-0.590817 0.42783,-1.624747 0,-1.033929 -0.42783,-1.619653 -0.42783,-0.590817 -1.17145,-0.590817 -0.74361,0 -1.17145,0.590817 -0.42274,0.585724 -0.42274,1.619653 z"
         style="font-size:10.43097401px"
         id="path3809"
         inkscape:connector-curvature="0" />
      <path
         d="m 213.89362,54.617478 q -0.39728,1.01865 -0.77418,1.329338 -0.3769,0.310688 -1.00846,0.310688 l -0.74871,0 0,-0.78436 0.55007,0 q 0.38709,0 0.60101,-0.183357 0.21391,-0.183357 0.47367,-0.865852 l 0.16807,-0.427833 -2.30724,-5.612761 0.99319,0 1.78263,4.461687 1.78264,-4.461687 0.99318,0 -2.50587,6.234137 z"
         style="font-size:10.43097401px"
         id="path3811"
         inkscape:connector-curvature="0" />
      <path
         d="m 220.34167,48.383341 0.99318,0 1.78264,4.787655 1.78264,-4.787655 0.99318,0 -2.13916,5.704439 -1.27332,0 -2.13916,-5.704439 z"
         style="font-size:10.43097401px"
         id="path3813"
         inkscape:connector-curvature="0" />
      <path
         d="m 229.77946,51.220281 q -1.1358,0 -1.57381,0.259756 -0.43802,0.259756 -0.43802,0.886225 0,0.499139 0.32596,0.794547 0.33107,0.290315 0.89642,0.290315 0.77926,0 1.24784,-0.550071 0.47367,-0.555164 0.47367,-1.471949 l 0,-0.208823 -0.93206,0 z m 1.86922,-0.387087 0,3.254586 -0.93716,0 0,-0.865852 q -0.32087,0.519511 -0.79964,0.769081 -0.47876,0.244476 -1.17144,0.244476 -0.87604,0 -1.39555,-0.488952 -0.51442,-0.494045 -0.51442,-1.319152 0,-0.962624 0.64175,-1.451576 0.64684,-0.488952 1.92525,-0.488952 l 1.31405,0 0,-0.09168 q 0,-0.646843 -0.42783,-0.998277 -0.42274,-0.356527 -1.19182,-0.356527 -0.48895,0 -0.95244,0.117144 -0.46348,0.117145 -0.89132,0.351435 l 0,-0.865853 q 0.51442,-0.198637 0.99828,-0.295408 0.48386,-0.101865 0.94225,-0.101865 1.23766,0 1.84885,0.641749 0.61119,0.64175 0.61119,1.945621 z"
         style="font-size:10.43097401px"
         id="path3815"
         inkscape:connector-curvature="0" />
      <path
         d="m 233.58412,46.162685 0.93715,0 0,7.925095 -0.93715,0 0,-7.925095 z"
         style="font-size:10.43097401px"
         id="path3817"
         inkscape:connector-curvature="0" />
      <path
         d="m 236.47708,48.383341 0.93716,0 0,5.704439 -0.93716,0 0,-5.704439 z m 0,-2.220656 0.93716,0 0,1.186727 -0.93716,0 0,-1.186727 z"
         style="font-size:10.43097401px"
         id="path3819"
         inkscape:connector-curvature="0" />
      <path
         d="m 243.12377,49.249194 0,-3.086509 0.93716,0 0,7.925095 -0.93716,0 0,-0.855665 q -0.29541,0.509324 -0.74871,0.758894 -0.4482,0.244476 -1.07976,0.244476 -1.03393,0 -1.68587,-0.825107 -0.64684,-0.825106 -0.64684,-2.169724 0,-1.344618 0.64684,-2.169724 0.65194,-0.825106 1.68587,-0.825106 0.63156,0 1.07976,0.249569 0.4533,0.244476 0.74871,0.753801 z m -3.19346,1.99146 q 0,1.03393 0.42273,1.624747 0.42784,0.585723 1.17145,0.585723 0.74362,0 1.17145,-0.585723 0.42783,-0.590817 0.42783,-1.624747 0,-1.033929 -0.42783,-1.619653 -0.42783,-0.590817 -1.17145,-0.590817 -0.74361,0 -1.17145,0.590817 -0.42273,0.585724 -0.42273,1.619653 z"
         style="font-size:10.43097401px"
         id="path3821"
         inkscape:connector-curvature="0" />
      <path
         d="m 248.58373,51.220281 q -1.13579,0 -1.57381,0.259756 -0.43802,0.259756 -0.43802,0.886225 0,0.499139 0.32597,0.794547 0.33106,0.290315 0.89641,0.290315 0.77927,0 1.24785,-0.550071 0.47367,-0.555164 0.47367,-1.471949 l 0,-0.208823 -0.93207,0 z m 1.86923,-0.387087 0,3.254586 -0.93716,0 0,-0.865852 q -0.32088,0.519511 -0.79964,0.769081 -0.47877,0.244476 -1.17145,0.244476 -0.87604,0 -1.39555,-0.488952 -0.51442,-0.494045 -0.51442,-1.319152 0,-0.962624 0.64175,-1.451576 0.64685,-0.488952 1.92525,-0.488952 l 1.31406,0 0,-0.09168 q 0,-0.646843 -0.42783,-0.998277 -0.42274,-0.356527 -1.19182,-0.356527 -0.48896,0 -0.95244,0.117144 -0.46349,0.117145 -0.89132,0.351435 l 0,-0.865853 q 0.51442,-0.198637 0.99828,-0.295408 0.48386,-0.101865 0.94225,-0.101865 1.23766,0 1.84885,0.641749 0.61119,0.64175 0.61119,1.945621 z"
         style="font-size:10.43097401px"
         id="path3823"
         inkscape:connector-curvature="0" />
      <path
         d="m 253.31536,46.763688 0,1.619653 1.93035,0 0,0.728335 -1.93035,0 0,3.096695 q 0,0.697776 0.18845,0.896412 0.19355,0.198637 0.77927,0.198637 l 0.96263,0 0,0.78436 -0.96263,0 q -1.08486,0 -1.49741,-0.402366 -0.41256,-0.40746 -0.41256,-1.477043 l 0,-3.096695 -0.68759,0 0,-0.728335 0.68759,0 0,-1.619653 0.94225,0 z"
         style="font-size:10.43097401px"
         id="path3825"
         inkscape:connector-curvature="0" />
      <path
         d="m 261.3627,51.001271 0,0.458393 -4.30889,0 q 0.0611,0.967717 0.58063,1.477042 0.5246,0.504232 1.45667,0.504232 0.53988,0 1.04411,-0.132425 0.50933,-0.132424 1.00847,-0.397273 l 0,0.886225 q -0.50424,0.213917 -1.03393,0.325968 -0.5297,0.112052 -1.07468,0.112052 -1.36499,0 -2.16463,-0.794547 -0.79455,-0.794547 -0.79455,-2.149351 0,-1.400644 0.7538,-2.220657 0.7589,-0.825106 2.0424,-0.825106 1.15107,0 1.81829,0.743614 0.67231,0.738521 0.67231,2.011833 z m -0.93716,-0.275035 q -0.0102,-0.769081 -0.43293,-1.227473 -0.41764,-0.458392 -1.11033,-0.458392 -0.78436,0 -1.25803,0.443112 -0.46858,0.443113 -0.53988,1.247846 l 3.34117,-0.0051 z"
         style="font-size:10.43097401px"
         id="path3827"
         inkscape:connector-curvature="0" />
      <path
         d="m 266.65458,49.249194 0,-3.086509 0.93716,0 0,7.925095 -0.93716,0 0,-0.855665 q -0.2954,0.509324 -0.7487,0.758894 -0.44821,0.244476 -1.07977,0.244476 -1.03393,0 -1.68587,-0.825107 -0.64684,-0.825106 -0.64684,-2.169724 0,-1.344618 0.64684,-2.169724 0.65194,-0.825106 1.68587,-0.825106 0.63156,0 1.07977,0.249569 0.4533,0.244476 0.7487,0.753801 z m -3.19346,1.99146 q 0,1.03393 0.42274,1.624747 0.42783,0.585723 1.17144,0.585723 0.74362,0 1.17145,-0.585723 0.42783,-0.590817 0.42783,-1.624747 0,-1.033929 -0.42783,-1.619653 -0.42783,-0.590817 -1.17145,-0.590817 -0.74361,0 -1.17144,0.590817 -0.42274,0.585724 -0.42274,1.619653 z"
         style="font-size:10.43097401px"
         id="path3829"
         inkscape:connector-curvature="0" />
      <path
         d="m 272.29791,48.383341 0.93715,0 1.17145,4.4515 1.16635,-4.4515 1.10524,0 1.17145,4.4515 1.16635,-4.4515 0.93716,0 -1.49232,5.704439 -1.10524,0 -1.22747,-4.675602 -1.23257,4.675602 -1.10523,0 -1.49232,-5.704439 z"
         style="font-size:10.43097401px"
         id="path3831"
         inkscape:connector-curvature="0" />
      <path
         d="m 281.37917,48.383341 0.93716,0 0,5.704439 -0.93716,0 0,-5.704439 z m 0,-2.220656 0.93716,0 0,1.186727 -0.93716,0 0,-1.186727 z"
         style="font-size:10.43097401px"
         id="path3833"
         inkscape:connector-curvature="0" />
      <path
         d="m 285.1991,46.763688 0,1.619653 1.93034,0 0,0.728335 -1.93034,0 0,3.096695 q 0,0.697776 0.18845,0.896412 0.19354,0.198637 0.77927,0.198637 l 0.96262,0 0,0.78436 -0.96262,0 q -1.08487,0 -1.49742,-0.402366 -0.41255,-0.40746 -0.41255,-1.477043 l 0,-3.096695 -0.68759,0 0,-0.728335 0.68759,0 0,-1.619653 0.94225,0 z"
         style="font-size:10.43097401px"
         id="path3835"
         inkscape:connector-curvature="0" />
      <path
         d="m 293.10892,50.644744 0,3.443036 -0.93716,0 0,-3.412476 q 0,-0.809827 -0.31578,-1.212194 -0.31578,-0.402366 -0.94734,-0.402366 -0.7589,0 -1.19692,0.483858 -0.43802,0.483859 -0.43802,1.319152 l 0,3.224026 -0.94225,0 0,-7.925095 0.94225,0 0,3.106882 q 0.33616,-0.514418 0.78946,-0.769081 0.45839,-0.254662 1.0543,-0.254662 0.983,0 1.48723,0.61119 0.50423,0.606096 0.50423,1.78773 z"
         style="font-size:10.43097401px"
         id="path3837"
         inkscape:connector-curvature="0" />
      <path
         d="m 301.61464,49.25938 q -0.15789,-0.09168 -0.34634,-0.132424 -0.18336,-0.04584 -0.40746,-0.04584 -0.79455,0 -1.22238,0.519511 -0.42274,0.514418 -0.42274,1.482135 l 0,3.005017 -0.94225,0 0,-5.704439 0.94225,0 0,0.886226 q 0.29541,-0.519512 0.76908,-0.769081 0.47367,-0.254662 1.15108,-0.254662 0.0968,0 0.21391,0.01528 0.11715,0.01019 0.25976,0.03565 l 0.005,0.962624 z"
         style="font-size:10.43097401px"
         id="path3839"
         inkscape:connector-curvature="0" />
      <path
         d="m 307.26306,51.001271 0,0.458393 -4.30889,0 q 0.0611,0.967717 0.58063,1.477042 0.5246,0.504232 1.45667,0.504232 0.53988,0 1.04411,-0.132425 0.50933,-0.132424 1.00847,-0.397273 l 0,0.886225 q -0.50424,0.213917 -1.03393,0.325968 -0.5297,0.112052 -1.07468,0.112052 -1.36499,0 -2.16463,-0.794547 -0.79455,-0.794547 -0.79455,-2.149351 0,-1.400644 0.7538,-2.220657 0.7589,-0.825106 2.0424,-0.825106 1.15107,0 1.81829,0.743614 0.67231,0.738521 0.67231,2.011833 z m -0.93716,-0.275035 q -0.0102,-0.769081 -0.43293,-1.227473 -0.41764,-0.458392 -1.11033,-0.458392 -0.78436,0 -1.25803,0.443112 -0.46858,0.443113 -0.53988,1.247846 l 3.34117,-0.0051 z"
         style="font-size:10.43097401px"
         id="path3841"
         inkscape:connector-curvature="0" />
      <path
         d="m 312.55494,51.169349 q 0,-1.01865 -0.42274,-1.578908 -0.41764,-0.560257 -1.17654,-0.560257 -0.7538,0 -1.17654,0.560257 -0.41764,0.560258 -0.41764,1.578908 0,1.013556 0.41764,1.573814 0.42274,0.560257 1.17654,0.560257 0.7589,0 1.17654,-0.560257 0.42274,-0.560258 0.42274,-1.573814 z m 0.93716,2.21047 q 0,1.456669 -0.64684,2.164631 -0.64684,0.713054 -1.98128,0.713054 -0.49404,0 -0.93206,-0.0764 -0.43802,-0.07131 -0.85057,-0.224103 l 0,-0.911692 q 0.41255,0.224103 0.81492,0.331061 0.40236,0.106959 0.82001,0.106959 0.92188,0 1.38027,-0.483859 0.45839,-0.478765 0.45839,-1.451576 l 0,-0.463486 q -0.29031,0.504232 -0.74361,0.753801 -0.4533,0.249569 -1.08486,0.249569 -1.04921,0 -1.69096,-0.79964 -0.64175,-0.79964 -0.64175,-2.118791 0,-1.324245 0.64175,-2.123885 0.64175,-0.79964 1.69096,-0.79964 0.63156,0 1.08486,0.249569 0.4533,0.249569 0.74361,0.753801 l 0,-0.865853 0.93716,0 0,4.996478 z"
         style="font-size:10.43097401px"
         id="path3843"
         inkscape:connector-curvature="0" />
      <path
         d="m 320.30178,51.001271 0,0.458393 -4.30889,0 q 0.0611,0.967717 0.58063,1.477042 0.5246,0.504232 1.45667,0.504232 0.53988,0 1.04411,-0.132425 0.50933,-0.132424 1.00847,-0.397273 l 0,0.886225 q -0.50424,0.213917 -1.03393,0.325968 -0.5297,0.112052 -1.07468,0.112052 -1.36499,0 -2.16463,-0.794547 -0.79455,-0.794547 -0.79455,-2.149351 0,-1.400644 0.7538,-2.220657 0.7589,-0.825106 2.0424,-0.825106 1.15107,0 1.81829,0.743614 0.67231,0.738521 0.67231,2.011833 z m -0.93716,-0.275035 q -0.0102,-0.769081 -0.43293,-1.227473 -0.41765,-0.458392 -1.11033,-0.458392 -0.78436,0 -1.25803,0.443112 -0.46858,0.443113 -0.53988,1.247846 l 3.34117,-0.0051 z"
         style="font-size:10.43097401px"
         id="path3845"
         inkscape:connector-curvature="0" />
      <path
         d="m 326.3984,48.383341 -2.06277,2.775821 2.16972,2.928618 -1.10523,0 -1.6604,-2.241029 -1.6604,2.241029 -1.10523,0 2.21556,-2.984644 -2.02711,-2.719795 1.10523,0 1.5127,2.032207 1.51269,-2.032207 1.10524,0 z"
         style="font-size:10.43097401px"
         id="path3847"
         inkscape:connector-curvature="0" />
      <path
         d="m 328.7362,53.232115 0,3.025389 -0.94225,0 0,-7.874163 0.94225,0 0,0.865853 q 0.29541,-0.509325 0.74361,-0.753801 0.4533,-0.249569 1.07977,-0.249569 1.03902,0 1.68587,0.825106 0.65193,0.825106 0.65193,2.169724 0,1.344618 -0.65193,2.169724 -0.64685,0.825107 -1.68587,0.825107 -0.62647,0 -1.07977,-0.244476 -0.4482,-0.24957 -0.74361,-0.758894 z m 3.18837,-1.991461 q 0,-1.033929 -0.42783,-1.619653 -0.42274,-0.590817 -1.16635,-0.590817 -0.74362,0 -1.17145,0.590817 -0.42274,0.585724 -0.42274,1.619653 0,1.03393 0.42274,1.624747 0.42783,0.585723 1.17145,0.585723 0.74361,0 1.16635,-0.585723 0.42783,-0.590817 0.42783,-1.624747 z"
         style="font-size:10.43097401px"
         id="path3849"
         inkscape:connector-curvature="0" />
    </g>
    <path
       style="fill:none;fill-rule:evenodd;stroke:#000000;stroke-width:1.56450582px;stroke-linecap:butt;stroke-linejoin:miter;stroke-opacity:1"
       d="M 413.94822,160.70979 302.52011,193.2437"
       id="path3848"
       inkscape:connector-curvature="0" />
  </g>
</svg>
